%TF.GenerationSoftware,KiCad,Pcbnew,5.0.1-33cea8e~68~ubuntu18.04.1*%
%TF.CreationDate,2018-11-27T22:05:36+03:00*%
%TF.ProjectId,jeep-radio,6A6565702D726164696F2E6B69636164,rev?*%
%TF.SameCoordinates,Original*%
%TF.FileFunction,Copper,L2,Bot,Signal*%
%TF.FilePolarity,Positive*%
%FSLAX46Y46*%
G04 Gerber Fmt 4.6, Leading zero omitted, Abs format (unit mm)*
G04 Created by KiCad (PCBNEW 5.0.1-33cea8e~68~ubuntu18.04.1) date Вт 27 ноя 2018 22:05:36*
%MOMM*%
%LPD*%
G01*
G04 APERTURE LIST*
%ADD10R,1.700000X1.700000*%
%ADD11O,1.700000X1.700000*%
%ADD12R,1.600000X1.600000*%
%ADD13C,1.600000*%
%ADD14C,0.800000*%
%ADD15C,0.250000*%
%ADD16C,0.600000*%
%ADD17C,0.254000*%
G04 APERTURE END LIST*
D10*
X177546000Y-103378000D03*
D11*
X177546000Y-105918000D03*
X177546000Y-108458000D03*
X177546000Y-110998000D03*
D10*
X148590000Y-70485000D03*
D11*
X148590000Y-73025000D03*
X148590000Y-75565000D03*
D12*
X166497000Y-108077000D03*
D13*
X162697000Y-108077000D03*
D12*
X143510000Y-113411000D03*
D13*
X143510000Y-117211000D03*
D10*
X123190000Y-72390000D03*
D11*
X125730000Y-72390000D03*
X161925000Y-70485000D03*
X164465000Y-70485000D03*
D10*
X167005000Y-70485000D03*
X129032000Y-118999000D03*
D11*
X131572000Y-118999000D03*
X134112000Y-118999000D03*
D10*
X124460000Y-103505000D03*
D11*
X124460000Y-106045000D03*
X121920000Y-103505000D03*
X121920000Y-106045000D03*
X119380000Y-103505000D03*
X119380000Y-106045000D03*
D14*
X152654000Y-113665000D03*
X151384000Y-113665000D03*
X151384000Y-114935000D03*
X152654000Y-114935000D03*
X155194000Y-113665000D03*
X156464000Y-113665000D03*
X156464000Y-114935000D03*
X155194000Y-114935000D03*
X157734000Y-113665000D03*
X157734000Y-114935000D03*
X150114000Y-114935000D03*
X150114000Y-113665000D03*
X139700000Y-101600000D03*
X143002004Y-81915000D03*
X140081000Y-90678000D03*
X137795000Y-89408000D03*
X129540000Y-102235000D03*
X159639000Y-93091000D03*
X158242000Y-93091000D03*
X127635000Y-85725000D03*
X140081004Y-86233000D03*
X126111000Y-90297000D03*
X142113000Y-87884000D03*
X127000000Y-97028000D03*
X116332000Y-94869000D03*
X131699000Y-87884000D03*
X122555000Y-93599000D03*
X132558270Y-90647048D03*
X128524000Y-92329000D03*
X152654000Y-93218000D03*
X151384000Y-77470000D03*
X164592000Y-97663000D03*
X153670000Y-77724000D03*
D15*
X159639000Y-93091000D02*
X159639000Y-95631000D01*
X169926000Y-105918000D02*
X177546000Y-105918000D01*
X159639000Y-95631000D02*
X169926000Y-105918000D01*
X158242000Y-93091000D02*
X158242000Y-95250000D01*
X171450000Y-108458000D02*
X177546000Y-108458000D01*
X158242000Y-95250000D02*
X171450000Y-108458000D01*
D16*
X127635000Y-85725000D02*
X128143000Y-86233000D01*
X139515319Y-86233000D02*
X140081004Y-86233000D01*
X128143000Y-86233000D02*
X139515319Y-86233000D01*
D15*
X127000000Y-91186000D02*
X127000000Y-97028000D01*
X126111000Y-90297000D02*
X127000000Y-91186000D01*
X131064000Y-90297000D02*
X126111000Y-90297000D01*
X142113000Y-87884000D02*
X133477000Y-87884000D01*
X133477000Y-87884000D02*
X131064000Y-90297000D01*
X131133315Y-87884000D02*
X131699000Y-87884000D01*
X123317000Y-87884000D02*
X131133315Y-87884000D01*
X116332000Y-94869000D02*
X123317000Y-87884000D01*
X121920000Y-103505000D02*
X121920000Y-94234000D01*
X122155001Y-93998999D02*
X122555000Y-93599000D01*
X121920000Y-94234000D02*
X122155001Y-93998999D01*
X125349000Y-108204000D02*
X128524000Y-105029000D01*
X128524000Y-105029000D02*
X128524000Y-92894685D01*
X129089685Y-92329000D02*
X128524000Y-92329000D01*
X121920000Y-106045000D02*
X124079000Y-108204000D01*
X130876318Y-92329000D02*
X129089685Y-92329000D01*
X128524000Y-92894685D02*
X128524000Y-92329000D01*
X132558270Y-90647048D02*
X130876318Y-92329000D01*
X124079000Y-108204000D02*
X125349000Y-108204000D01*
X151384000Y-91948000D02*
X151384000Y-77470000D01*
X152654000Y-93218000D02*
X151384000Y-91948000D01*
X172720000Y-110998000D02*
X177546000Y-110998000D01*
X152654000Y-93218000D02*
X154940000Y-93218000D01*
X154940000Y-93218000D02*
X172720000Y-110998000D01*
D16*
X153670000Y-81603315D02*
X153670000Y-77724000D01*
X164592000Y-97663000D02*
X164592000Y-92456000D01*
X164592000Y-92456000D02*
X153670000Y-81603315D01*
X170307000Y-103378000D02*
X177546000Y-103378000D01*
X164592000Y-97663000D02*
X170307000Y-103378000D01*
D17*
G36*
X128778000Y-80645000D02*
X128787667Y-80693601D01*
X128815197Y-80734803D01*
X128856399Y-80762333D01*
X128905000Y-80772000D01*
X146050000Y-80772000D01*
X146098601Y-80762333D01*
X146139803Y-80734803D01*
X146167333Y-80693601D01*
X146177000Y-80645000D01*
X146177000Y-77378699D01*
X150457000Y-77378699D01*
X150457000Y-77561301D01*
X150492624Y-77740396D01*
X150562504Y-77909099D01*
X150663952Y-78060928D01*
X150732001Y-78128977D01*
X150732000Y-91915978D01*
X150728846Y-91948000D01*
X150741435Y-92075814D01*
X150759555Y-92135546D01*
X150778717Y-92198716D01*
X150839259Y-92311983D01*
X150920736Y-92411264D01*
X150945619Y-92431685D01*
X151727000Y-93213067D01*
X151727000Y-93309301D01*
X151762624Y-93488396D01*
X151832504Y-93657099D01*
X151933952Y-93808928D01*
X152063072Y-93938048D01*
X152214901Y-94039496D01*
X152383604Y-94109376D01*
X152562699Y-94145000D01*
X152745301Y-94145000D01*
X152924396Y-94109376D01*
X153093099Y-94039496D01*
X153244928Y-93938048D01*
X153312976Y-93870000D01*
X154669934Y-93870000D01*
X172236320Y-111436387D01*
X172256736Y-111461264D01*
X172356016Y-111542741D01*
X172469283Y-111603283D01*
X172592185Y-111640565D01*
X172719999Y-111653154D01*
X172752021Y-111650000D01*
X176333138Y-111650000D01*
X176395527Y-111766721D01*
X176567603Y-111976397D01*
X176777279Y-112148473D01*
X177016495Y-112276337D01*
X177276061Y-112355075D01*
X177478360Y-112375000D01*
X177613640Y-112375000D01*
X177815939Y-112355075D01*
X178075505Y-112276337D01*
X178314721Y-112148473D01*
X178524397Y-111976397D01*
X178696473Y-111766721D01*
X178824337Y-111527505D01*
X178903075Y-111267939D01*
X178929662Y-110998000D01*
X178903075Y-110728061D01*
X178824337Y-110468495D01*
X178696473Y-110229279D01*
X178524397Y-110019603D01*
X178314721Y-109847527D01*
X178091102Y-109728000D01*
X178314721Y-109608473D01*
X178524397Y-109436397D01*
X178696473Y-109226721D01*
X178824337Y-108987505D01*
X178903075Y-108727939D01*
X178929662Y-108458000D01*
X178903075Y-108188061D01*
X178824337Y-107928495D01*
X178696473Y-107689279D01*
X178524397Y-107479603D01*
X178314721Y-107307527D01*
X178091102Y-107188000D01*
X178314721Y-107068473D01*
X178524397Y-106896397D01*
X178696473Y-106686721D01*
X178824337Y-106447505D01*
X178903075Y-106187939D01*
X178929662Y-105918000D01*
X178903075Y-105648061D01*
X178824337Y-105388495D01*
X178696473Y-105149279D01*
X178524397Y-104939603D01*
X178314721Y-104767527D01*
X178296054Y-104757549D01*
X178396000Y-104757549D01*
X178499310Y-104747374D01*
X178598650Y-104717239D01*
X178690202Y-104668304D01*
X178770448Y-104602448D01*
X178836304Y-104522202D01*
X178885239Y-104430650D01*
X178915374Y-104331310D01*
X178925549Y-104228000D01*
X178925549Y-102528000D01*
X178915374Y-102424690D01*
X178885239Y-102325350D01*
X178836304Y-102233798D01*
X178770448Y-102153552D01*
X178690202Y-102087696D01*
X178598650Y-102038761D01*
X178499310Y-102008626D01*
X178396000Y-101998451D01*
X176696000Y-101998451D01*
X176592690Y-102008626D01*
X176493350Y-102038761D01*
X176401798Y-102087696D01*
X176321552Y-102153552D01*
X176255696Y-102233798D01*
X176206761Y-102325350D01*
X176176626Y-102424690D01*
X176166451Y-102528000D01*
X176166451Y-102551000D01*
X170649555Y-102551000D01*
X165477874Y-97379321D01*
X165419000Y-97237189D01*
X165419000Y-92495285D01*
X165422995Y-92453354D01*
X165414941Y-92374160D01*
X165407034Y-92293880D01*
X165406646Y-92292600D01*
X165406512Y-92291285D01*
X165383081Y-92214917D01*
X165359745Y-92137990D01*
X165359118Y-92136817D01*
X165358728Y-92135546D01*
X165320711Y-92064963D01*
X165282952Y-91994321D01*
X165282109Y-91993294D01*
X165281478Y-91992122D01*
X165230296Y-91930160D01*
X165179606Y-91868394D01*
X165147039Y-91841667D01*
X154497000Y-81259218D01*
X154497000Y-78149811D01*
X154561376Y-77994396D01*
X154597000Y-77815301D01*
X154597000Y-77632699D01*
X154561376Y-77453604D01*
X154491496Y-77284901D01*
X154390048Y-77133072D01*
X154260928Y-77003952D01*
X154109099Y-76902504D01*
X153940396Y-76832624D01*
X153761301Y-76797000D01*
X153578699Y-76797000D01*
X153399604Y-76832624D01*
X153230901Y-76902504D01*
X153079072Y-77003952D01*
X152949952Y-77133072D01*
X152848504Y-77284901D01*
X152778624Y-77453604D01*
X152743000Y-77632699D01*
X152743000Y-77815301D01*
X152778624Y-77994396D01*
X152843001Y-78149813D01*
X152843000Y-81564019D01*
X152839004Y-81605960D01*
X152847075Y-81685313D01*
X152854966Y-81765434D01*
X152855354Y-81766714D01*
X152855488Y-81768029D01*
X152878906Y-81844354D01*
X152902255Y-81921324D01*
X152902883Y-81922499D01*
X152903272Y-81923767D01*
X152941318Y-81994405D01*
X152979048Y-82064993D01*
X152979888Y-82066016D01*
X152980521Y-82067192D01*
X153031609Y-82129039D01*
X153082394Y-82190921D01*
X153114972Y-82217657D01*
X163765001Y-92800099D01*
X163765000Y-97237188D01*
X163700624Y-97392604D01*
X163665000Y-97571699D01*
X163665000Y-97754301D01*
X163700624Y-97933396D01*
X163770504Y-98102099D01*
X163871952Y-98253928D01*
X164001072Y-98383048D01*
X164152901Y-98484496D01*
X164308321Y-98548874D01*
X169693504Y-103934059D01*
X169719394Y-103965606D01*
X169750941Y-103991496D01*
X169750948Y-103991503D01*
X169845320Y-104068952D01*
X169988989Y-104145745D01*
X170036278Y-104160090D01*
X170144880Y-104193034D01*
X170266376Y-104205000D01*
X170266386Y-104205000D01*
X170307000Y-104209000D01*
X170347614Y-104205000D01*
X176166451Y-104205000D01*
X176166451Y-104228000D01*
X176176626Y-104331310D01*
X176206761Y-104430650D01*
X176255696Y-104522202D01*
X176321552Y-104602448D01*
X176401798Y-104668304D01*
X176493350Y-104717239D01*
X176592690Y-104747374D01*
X176696000Y-104757549D01*
X176795946Y-104757549D01*
X176777279Y-104767527D01*
X176567603Y-104939603D01*
X176395527Y-105149279D01*
X176333138Y-105266000D01*
X170196067Y-105266000D01*
X160291000Y-95360934D01*
X160291000Y-93749976D01*
X160359048Y-93681928D01*
X160460496Y-93530099D01*
X160530376Y-93361396D01*
X160566000Y-93182301D01*
X160566000Y-92999699D01*
X160530376Y-92820604D01*
X160460496Y-92651901D01*
X160359048Y-92500072D01*
X160229928Y-92370952D01*
X160078099Y-92269504D01*
X159909396Y-92199624D01*
X159730301Y-92164000D01*
X159547699Y-92164000D01*
X159368604Y-92199624D01*
X159199901Y-92269504D01*
X159048072Y-92370952D01*
X158940500Y-92478524D01*
X158832928Y-92370952D01*
X158681099Y-92269504D01*
X158512396Y-92199624D01*
X158333301Y-92164000D01*
X158150699Y-92164000D01*
X157971604Y-92199624D01*
X157802901Y-92269504D01*
X157651072Y-92370952D01*
X157521952Y-92500072D01*
X157420504Y-92651901D01*
X157350624Y-92820604D01*
X157315000Y-92999699D01*
X157315000Y-93182301D01*
X157350624Y-93361396D01*
X157420504Y-93530099D01*
X157521952Y-93681928D01*
X157590000Y-93749976D01*
X157590001Y-94945935D01*
X155423685Y-92779619D01*
X155403264Y-92754736D01*
X155303984Y-92673259D01*
X155190717Y-92612717D01*
X155067814Y-92575435D01*
X154972022Y-92566000D01*
X154940000Y-92562846D01*
X154907978Y-92566000D01*
X153312976Y-92566000D01*
X153244928Y-92497952D01*
X153093099Y-92396504D01*
X152924396Y-92326624D01*
X152745301Y-92291000D01*
X152649067Y-92291000D01*
X152036000Y-91677934D01*
X152036000Y-78128976D01*
X152104048Y-78060928D01*
X152205496Y-77909099D01*
X152275376Y-77740396D01*
X152311000Y-77561301D01*
X152311000Y-77378699D01*
X152275376Y-77199604D01*
X152205496Y-77030901D01*
X152104048Y-76879072D01*
X151974928Y-76749952D01*
X151823099Y-76648504D01*
X151654396Y-76578624D01*
X151475301Y-76543000D01*
X151292699Y-76543000D01*
X151113604Y-76578624D01*
X150944901Y-76648504D01*
X150793072Y-76749952D01*
X150663952Y-76879072D01*
X150562504Y-77030901D01*
X150492624Y-77199604D01*
X150457000Y-77378699D01*
X146177000Y-77378699D01*
X146177000Y-75921890D01*
X147148524Y-75921890D01*
X147193175Y-76069099D01*
X147318359Y-76331920D01*
X147492412Y-76565269D01*
X147708645Y-76760178D01*
X147958748Y-76909157D01*
X148233109Y-77006481D01*
X148463000Y-76885814D01*
X148463000Y-75692000D01*
X148717000Y-75692000D01*
X148717000Y-76885814D01*
X148946891Y-77006481D01*
X149221252Y-76909157D01*
X149471355Y-76760178D01*
X149687588Y-76565269D01*
X149861641Y-76331920D01*
X149986825Y-76069099D01*
X150031476Y-75921890D01*
X149910155Y-75692000D01*
X148717000Y-75692000D01*
X148463000Y-75692000D01*
X147269845Y-75692000D01*
X147148524Y-75921890D01*
X146177000Y-75921890D01*
X146177000Y-69182000D01*
X147469551Y-69182000D01*
X147445798Y-69194696D01*
X147365552Y-69260552D01*
X147299696Y-69340798D01*
X147250761Y-69432350D01*
X147220626Y-69531690D01*
X147210451Y-69635000D01*
X147210451Y-71335000D01*
X147220626Y-71438310D01*
X147250761Y-71537650D01*
X147299696Y-71629202D01*
X147365552Y-71709448D01*
X147445798Y-71775304D01*
X147537350Y-71824239D01*
X147636690Y-71854374D01*
X147740000Y-71864549D01*
X147839946Y-71864549D01*
X147821279Y-71874527D01*
X147611603Y-72046603D01*
X147439527Y-72256279D01*
X147311663Y-72495495D01*
X147232925Y-72755061D01*
X147206338Y-73025000D01*
X147232925Y-73294939D01*
X147311663Y-73554505D01*
X147439527Y-73793721D01*
X147611603Y-74003397D01*
X147821279Y-74175473D01*
X147933877Y-74235658D01*
X147708645Y-74369822D01*
X147492412Y-74564731D01*
X147318359Y-74798080D01*
X147193175Y-75060901D01*
X147148524Y-75208110D01*
X147269845Y-75438000D01*
X148463000Y-75438000D01*
X148463000Y-75418000D01*
X148717000Y-75418000D01*
X148717000Y-75438000D01*
X149910155Y-75438000D01*
X150031476Y-75208110D01*
X149986825Y-75060901D01*
X149861641Y-74798080D01*
X149687588Y-74564731D01*
X149471355Y-74369822D01*
X149246123Y-74235658D01*
X149358721Y-74175473D01*
X149568397Y-74003397D01*
X149740473Y-73793721D01*
X149868337Y-73554505D01*
X149947075Y-73294939D01*
X149973662Y-73025000D01*
X149947075Y-72755061D01*
X149868337Y-72495495D01*
X149740473Y-72256279D01*
X149568397Y-72046603D01*
X149358721Y-71874527D01*
X149340054Y-71864549D01*
X149440000Y-71864549D01*
X149543310Y-71854374D01*
X149642650Y-71824239D01*
X149734202Y-71775304D01*
X149814448Y-71709448D01*
X149880304Y-71629202D01*
X149929239Y-71537650D01*
X149959374Y-71438310D01*
X149969549Y-71335000D01*
X149969549Y-69635000D01*
X149959374Y-69531690D01*
X149929239Y-69432350D01*
X149880304Y-69340798D01*
X149814448Y-69260552D01*
X149734202Y-69194696D01*
X149710449Y-69182000D01*
X161476799Y-69182000D01*
X161395495Y-69206663D01*
X161156279Y-69334527D01*
X160946603Y-69506603D01*
X160774527Y-69716279D01*
X160646663Y-69955495D01*
X160567925Y-70215061D01*
X160541338Y-70485000D01*
X160567925Y-70754939D01*
X160646663Y-71014505D01*
X160774527Y-71253721D01*
X160946603Y-71463397D01*
X161156279Y-71635473D01*
X161395495Y-71763337D01*
X161655061Y-71842075D01*
X161857360Y-71862000D01*
X161992640Y-71862000D01*
X162194939Y-71842075D01*
X162454505Y-71763337D01*
X162693721Y-71635473D01*
X162903397Y-71463397D01*
X163075473Y-71253721D01*
X163195000Y-71030102D01*
X163314527Y-71253721D01*
X163486603Y-71463397D01*
X163696279Y-71635473D01*
X163935495Y-71763337D01*
X164195061Y-71842075D01*
X164397360Y-71862000D01*
X164532640Y-71862000D01*
X164734939Y-71842075D01*
X164994505Y-71763337D01*
X165233721Y-71635473D01*
X165443397Y-71463397D01*
X165615473Y-71253721D01*
X165625451Y-71235054D01*
X165625451Y-71335000D01*
X165635626Y-71438310D01*
X165665761Y-71537650D01*
X165714696Y-71629202D01*
X165780552Y-71709448D01*
X165860798Y-71775304D01*
X165952350Y-71824239D01*
X166051690Y-71854374D01*
X166155000Y-71864549D01*
X167855000Y-71864549D01*
X167958310Y-71854374D01*
X168057650Y-71824239D01*
X168149202Y-71775304D01*
X168229448Y-71709448D01*
X168295304Y-71629202D01*
X168340038Y-71545509D01*
X175043000Y-71545509D01*
X175043000Y-71964491D01*
X175124739Y-72375423D01*
X175285077Y-72762512D01*
X175517851Y-73110884D01*
X175814116Y-73407149D01*
X176162488Y-73639923D01*
X176549577Y-73800261D01*
X176960509Y-73882000D01*
X177379491Y-73882000D01*
X177790423Y-73800261D01*
X178177512Y-73639923D01*
X178525884Y-73407149D01*
X178822149Y-73110884D01*
X179054923Y-72762512D01*
X179215261Y-72375423D01*
X179297000Y-71964491D01*
X179297000Y-71545509D01*
X179215261Y-71134577D01*
X179054923Y-70747488D01*
X178822149Y-70399116D01*
X178525884Y-70102851D01*
X178177512Y-69870077D01*
X177790423Y-69709739D01*
X177379491Y-69628000D01*
X176960509Y-69628000D01*
X176549577Y-69709739D01*
X176162488Y-69870077D01*
X175814116Y-70102851D01*
X175517851Y-70399116D01*
X175285077Y-70747488D01*
X175124739Y-71134577D01*
X175043000Y-71545509D01*
X168340038Y-71545509D01*
X168344239Y-71537650D01*
X168374374Y-71438310D01*
X168384549Y-71335000D01*
X168384549Y-69635000D01*
X168374374Y-69531690D01*
X168344239Y-69432350D01*
X168295304Y-69340798D01*
X168229448Y-69260552D01*
X168149202Y-69194696D01*
X168125449Y-69182000D01*
X179738000Y-69182000D01*
X179738000Y-77517191D01*
X170815000Y-77517191D01*
X170766399Y-77526858D01*
X170725197Y-77554388D01*
X170697667Y-77595590D01*
X170688000Y-77644191D01*
X170688000Y-98599191D01*
X170697667Y-98647792D01*
X170725197Y-98688994D01*
X170766399Y-98716524D01*
X170815000Y-98726191D01*
X179738001Y-98726191D01*
X179738001Y-121953224D01*
X113632000Y-121977777D01*
X113632000Y-119170509D01*
X114078000Y-119170509D01*
X114078000Y-119589491D01*
X114159739Y-120000423D01*
X114320077Y-120387512D01*
X114552851Y-120735884D01*
X114849116Y-121032149D01*
X115197488Y-121264923D01*
X115584577Y-121425261D01*
X115995509Y-121507000D01*
X116414491Y-121507000D01*
X116825423Y-121425261D01*
X117212512Y-121264923D01*
X117560884Y-121032149D01*
X117857149Y-120735884D01*
X118089923Y-120387512D01*
X118250261Y-120000423D01*
X118332000Y-119589491D01*
X118332000Y-119170509D01*
X118250261Y-118759577D01*
X118089923Y-118372488D01*
X117940594Y-118149000D01*
X127652451Y-118149000D01*
X127652451Y-119849000D01*
X127662626Y-119952310D01*
X127692761Y-120051650D01*
X127741696Y-120143202D01*
X127807552Y-120223448D01*
X127887798Y-120289304D01*
X127979350Y-120338239D01*
X128078690Y-120368374D01*
X128182000Y-120378549D01*
X129882000Y-120378549D01*
X129985310Y-120368374D01*
X130084650Y-120338239D01*
X130176202Y-120289304D01*
X130256448Y-120223448D01*
X130322304Y-120143202D01*
X130371239Y-120051650D01*
X130401374Y-119952310D01*
X130405344Y-119911998D01*
X130571731Y-120096588D01*
X130805080Y-120270641D01*
X131067901Y-120395825D01*
X131215110Y-120440476D01*
X131445000Y-120319155D01*
X131445000Y-119126000D01*
X131425000Y-119126000D01*
X131425000Y-118872000D01*
X131445000Y-118872000D01*
X131445000Y-117678845D01*
X131699000Y-117678845D01*
X131699000Y-118872000D01*
X131719000Y-118872000D01*
X131719000Y-119126000D01*
X131699000Y-119126000D01*
X131699000Y-120319155D01*
X131928890Y-120440476D01*
X132076099Y-120395825D01*
X132338920Y-120270641D01*
X132572269Y-120096588D01*
X132767178Y-119880355D01*
X132901342Y-119655123D01*
X132961527Y-119767721D01*
X133133603Y-119977397D01*
X133343279Y-120149473D01*
X133582495Y-120277337D01*
X133842061Y-120356075D01*
X134044360Y-120376000D01*
X134179640Y-120376000D01*
X134381939Y-120356075D01*
X134641505Y-120277337D01*
X134880721Y-120149473D01*
X135090397Y-119977397D01*
X135262473Y-119767721D01*
X135390337Y-119528505D01*
X135469075Y-119268939D01*
X135478769Y-119170509D01*
X175043000Y-119170509D01*
X175043000Y-119589491D01*
X175124739Y-120000423D01*
X175285077Y-120387512D01*
X175517851Y-120735884D01*
X175814116Y-121032149D01*
X176162488Y-121264923D01*
X176549577Y-121425261D01*
X176960509Y-121507000D01*
X177379491Y-121507000D01*
X177790423Y-121425261D01*
X178177512Y-121264923D01*
X178525884Y-121032149D01*
X178822149Y-120735884D01*
X179054923Y-120387512D01*
X179215261Y-120000423D01*
X179297000Y-119589491D01*
X179297000Y-119170509D01*
X179215261Y-118759577D01*
X179054923Y-118372488D01*
X178822149Y-118024116D01*
X178525884Y-117727851D01*
X178177512Y-117495077D01*
X177790423Y-117334739D01*
X177379491Y-117253000D01*
X176960509Y-117253000D01*
X176549577Y-117334739D01*
X176162488Y-117495077D01*
X175814116Y-117727851D01*
X175517851Y-118024116D01*
X175285077Y-118372488D01*
X175124739Y-118759577D01*
X175043000Y-119170509D01*
X135478769Y-119170509D01*
X135495662Y-118999000D01*
X135469075Y-118729061D01*
X135390337Y-118469495D01*
X135262473Y-118230279D01*
X135240662Y-118203702D01*
X142696903Y-118203702D01*
X142768486Y-118447671D01*
X143023996Y-118568571D01*
X143298184Y-118637300D01*
X143580512Y-118651217D01*
X143860130Y-118609787D01*
X144126292Y-118514603D01*
X144251514Y-118447671D01*
X144323097Y-118203702D01*
X143510000Y-117390605D01*
X142696903Y-118203702D01*
X135240662Y-118203702D01*
X135090397Y-118020603D01*
X134880721Y-117848527D01*
X134641505Y-117720663D01*
X134381939Y-117641925D01*
X134179640Y-117622000D01*
X134044360Y-117622000D01*
X133842061Y-117641925D01*
X133582495Y-117720663D01*
X133343279Y-117848527D01*
X133133603Y-118020603D01*
X132961527Y-118230279D01*
X132901342Y-118342877D01*
X132767178Y-118117645D01*
X132572269Y-117901412D01*
X132338920Y-117727359D01*
X132076099Y-117602175D01*
X131928890Y-117557524D01*
X131699000Y-117678845D01*
X131445000Y-117678845D01*
X131215110Y-117557524D01*
X131067901Y-117602175D01*
X130805080Y-117727359D01*
X130571731Y-117901412D01*
X130405344Y-118086002D01*
X130401374Y-118045690D01*
X130371239Y-117946350D01*
X130322304Y-117854798D01*
X130256448Y-117774552D01*
X130176202Y-117708696D01*
X130084650Y-117659761D01*
X129985310Y-117629626D01*
X129882000Y-117619451D01*
X128182000Y-117619451D01*
X128078690Y-117629626D01*
X127979350Y-117659761D01*
X127887798Y-117708696D01*
X127807552Y-117774552D01*
X127741696Y-117854798D01*
X127692761Y-117946350D01*
X127662626Y-118045690D01*
X127652451Y-118149000D01*
X117940594Y-118149000D01*
X117857149Y-118024116D01*
X117560884Y-117727851D01*
X117212512Y-117495077D01*
X116825423Y-117334739D01*
X116557832Y-117281512D01*
X142069783Y-117281512D01*
X142111213Y-117561130D01*
X142206397Y-117827292D01*
X142273329Y-117952514D01*
X142517298Y-118024097D01*
X143330395Y-117211000D01*
X143689605Y-117211000D01*
X144502702Y-118024097D01*
X144746671Y-117952514D01*
X144867571Y-117697004D01*
X144936300Y-117422816D01*
X144950217Y-117140488D01*
X144908787Y-116860870D01*
X144813603Y-116594708D01*
X144746671Y-116469486D01*
X144502702Y-116397903D01*
X143689605Y-117211000D01*
X143330395Y-117211000D01*
X142517298Y-116397903D01*
X142273329Y-116469486D01*
X142152429Y-116724996D01*
X142083700Y-116999184D01*
X142069783Y-117281512D01*
X116557832Y-117281512D01*
X116414491Y-117253000D01*
X115995509Y-117253000D01*
X115584577Y-117334739D01*
X115197488Y-117495077D01*
X114849116Y-117727851D01*
X114552851Y-118024116D01*
X114320077Y-118372488D01*
X114159739Y-118759577D01*
X114078000Y-119170509D01*
X113632000Y-119170509D01*
X113632000Y-116218298D01*
X142696903Y-116218298D01*
X143510000Y-117031395D01*
X144323097Y-116218298D01*
X144251514Y-115974329D01*
X143996004Y-115853429D01*
X143721816Y-115784700D01*
X143439488Y-115770783D01*
X143159870Y-115812213D01*
X142893708Y-115907397D01*
X142768486Y-115974329D01*
X142696903Y-116218298D01*
X113632000Y-116218298D01*
X113632000Y-112611000D01*
X142180451Y-112611000D01*
X142180451Y-114211000D01*
X142190626Y-114314310D01*
X142220761Y-114413650D01*
X142269696Y-114505202D01*
X142335552Y-114585448D01*
X142415798Y-114651304D01*
X142507350Y-114700239D01*
X142606690Y-114730374D01*
X142710000Y-114740549D01*
X144310000Y-114740549D01*
X144413310Y-114730374D01*
X144512650Y-114700239D01*
X144604202Y-114651304D01*
X144684448Y-114585448D01*
X144750304Y-114505202D01*
X144799239Y-114413650D01*
X144829374Y-114314310D01*
X144839549Y-114211000D01*
X144839549Y-112611000D01*
X144829374Y-112507690D01*
X144799239Y-112408350D01*
X144750304Y-112316798D01*
X144684448Y-112236552D01*
X144604202Y-112170696D01*
X144512650Y-112121761D01*
X144413310Y-112091626D01*
X144310000Y-112081451D01*
X142710000Y-112081451D01*
X142606690Y-112091626D01*
X142507350Y-112121761D01*
X142415798Y-112170696D01*
X142335552Y-112236552D01*
X142269696Y-112316798D01*
X142220761Y-112408350D01*
X142190626Y-112507690D01*
X142180451Y-112611000D01*
X113632000Y-112611000D01*
X113632000Y-109069702D01*
X161883903Y-109069702D01*
X161955486Y-109313671D01*
X162210996Y-109434571D01*
X162485184Y-109503300D01*
X162767512Y-109517217D01*
X163047130Y-109475787D01*
X163313292Y-109380603D01*
X163438514Y-109313671D01*
X163510097Y-109069702D01*
X162697000Y-108256605D01*
X161883903Y-109069702D01*
X113632000Y-109069702D01*
X113632000Y-106401891D01*
X117938519Y-106401891D01*
X118035843Y-106676252D01*
X118184822Y-106926355D01*
X118379731Y-107142588D01*
X118613080Y-107316641D01*
X118875901Y-107441825D01*
X119023110Y-107486476D01*
X119253000Y-107365155D01*
X119253000Y-106172000D01*
X118059186Y-106172000D01*
X117938519Y-106401891D01*
X113632000Y-106401891D01*
X113632000Y-94777699D01*
X115405000Y-94777699D01*
X115405000Y-94960301D01*
X115440624Y-95139396D01*
X115510504Y-95308099D01*
X115611952Y-95459928D01*
X115741072Y-95589048D01*
X115892901Y-95690496D01*
X116061604Y-95760376D01*
X116240699Y-95796000D01*
X116423301Y-95796000D01*
X116602396Y-95760376D01*
X116771099Y-95690496D01*
X116922928Y-95589048D01*
X117052048Y-95459928D01*
X117153496Y-95308099D01*
X117223376Y-95139396D01*
X117259000Y-94960301D01*
X117259000Y-94864066D01*
X123587067Y-88536000D01*
X131040024Y-88536000D01*
X131108072Y-88604048D01*
X131259901Y-88705496D01*
X131428604Y-88775376D01*
X131607699Y-88811000D01*
X131627934Y-88811000D01*
X130793934Y-89645000D01*
X126769976Y-89645000D01*
X126701928Y-89576952D01*
X126550099Y-89475504D01*
X126381396Y-89405624D01*
X126202301Y-89370000D01*
X126019699Y-89370000D01*
X125840604Y-89405624D01*
X125671901Y-89475504D01*
X125520072Y-89576952D01*
X125390952Y-89706072D01*
X125289504Y-89857901D01*
X125219624Y-90026604D01*
X125184000Y-90205699D01*
X125184000Y-90388301D01*
X125219624Y-90567396D01*
X125289504Y-90736099D01*
X125390952Y-90887928D01*
X125520072Y-91017048D01*
X125671901Y-91118496D01*
X125840604Y-91188376D01*
X126019699Y-91224000D01*
X126115933Y-91224000D01*
X126348000Y-91456067D01*
X126348001Y-96369023D01*
X126279952Y-96437072D01*
X126178504Y-96588901D01*
X126108624Y-96757604D01*
X126073000Y-96936699D01*
X126073000Y-97119301D01*
X126108624Y-97298396D01*
X126178504Y-97467099D01*
X126279952Y-97618928D01*
X126409072Y-97748048D01*
X126560901Y-97849496D01*
X126729604Y-97919376D01*
X126908699Y-97955000D01*
X127091301Y-97955000D01*
X127270396Y-97919376D01*
X127439099Y-97849496D01*
X127590928Y-97748048D01*
X127720048Y-97618928D01*
X127821496Y-97467099D01*
X127872001Y-97345172D01*
X127872000Y-104758933D01*
X125078934Y-107552000D01*
X124349067Y-107552000D01*
X124200134Y-107403067D01*
X124392360Y-107422000D01*
X124527640Y-107422000D01*
X124729939Y-107402075D01*
X124989505Y-107323337D01*
X125228721Y-107195473D01*
X125438397Y-107023397D01*
X125610473Y-106813721D01*
X125738337Y-106574505D01*
X125817075Y-106314939D01*
X125843662Y-106045000D01*
X125817075Y-105775061D01*
X125738337Y-105515495D01*
X125610473Y-105276279D01*
X125438397Y-105066603D01*
X125228721Y-104894527D01*
X125210054Y-104884549D01*
X125310000Y-104884549D01*
X125413310Y-104874374D01*
X125512650Y-104844239D01*
X125604202Y-104795304D01*
X125684448Y-104729448D01*
X125750304Y-104649202D01*
X125799239Y-104557650D01*
X125829374Y-104458310D01*
X125839549Y-104355000D01*
X125839549Y-102655000D01*
X125829374Y-102551690D01*
X125799239Y-102452350D01*
X125750304Y-102360798D01*
X125684448Y-102280552D01*
X125604202Y-102214696D01*
X125512650Y-102165761D01*
X125413310Y-102135626D01*
X125310000Y-102125451D01*
X123610000Y-102125451D01*
X123506690Y-102135626D01*
X123407350Y-102165761D01*
X123315798Y-102214696D01*
X123235552Y-102280552D01*
X123169696Y-102360798D01*
X123120761Y-102452350D01*
X123090626Y-102551690D01*
X123080451Y-102655000D01*
X123080451Y-102754946D01*
X123070473Y-102736279D01*
X122898397Y-102526603D01*
X122688721Y-102354527D01*
X122572000Y-102292138D01*
X122572000Y-94526000D01*
X122646301Y-94526000D01*
X122825396Y-94490376D01*
X122994099Y-94420496D01*
X123145928Y-94319048D01*
X123275048Y-94189928D01*
X123376496Y-94038099D01*
X123446376Y-93869396D01*
X123482000Y-93690301D01*
X123482000Y-93507699D01*
X123446376Y-93328604D01*
X123376496Y-93159901D01*
X123275048Y-93008072D01*
X123145928Y-92878952D01*
X122994099Y-92777504D01*
X122825396Y-92707624D01*
X122646301Y-92672000D01*
X122463699Y-92672000D01*
X122284604Y-92707624D01*
X122115901Y-92777504D01*
X121964072Y-92878952D01*
X121834952Y-93008072D01*
X121733504Y-93159901D01*
X121663624Y-93328604D01*
X121628000Y-93507699D01*
X121628000Y-93603934D01*
X121481614Y-93750320D01*
X121456737Y-93770736D01*
X121375260Y-93870016D01*
X121373583Y-93873154D01*
X121314717Y-93983284D01*
X121277435Y-94106186D01*
X121264846Y-94234000D01*
X121268001Y-94266032D01*
X121268000Y-102292138D01*
X121151279Y-102354527D01*
X120941603Y-102526603D01*
X120769527Y-102736279D01*
X120650000Y-102959898D01*
X120530473Y-102736279D01*
X120358397Y-102526603D01*
X120148721Y-102354527D01*
X119909505Y-102226663D01*
X119649939Y-102147925D01*
X119447640Y-102128000D01*
X119312360Y-102128000D01*
X119110061Y-102147925D01*
X118850495Y-102226663D01*
X118611279Y-102354527D01*
X118401603Y-102526603D01*
X118229527Y-102736279D01*
X118101663Y-102975495D01*
X118022925Y-103235061D01*
X117996338Y-103505000D01*
X118022925Y-103774939D01*
X118101663Y-104034505D01*
X118229527Y-104273721D01*
X118401603Y-104483397D01*
X118611279Y-104655473D01*
X118728752Y-104718264D01*
X118613080Y-104773359D01*
X118379731Y-104947412D01*
X118184822Y-105163645D01*
X118035843Y-105413748D01*
X117938519Y-105688109D01*
X118059186Y-105918000D01*
X119253000Y-105918000D01*
X119253000Y-105898000D01*
X119507000Y-105898000D01*
X119507000Y-105918000D01*
X119527000Y-105918000D01*
X119527000Y-106172000D01*
X119507000Y-106172000D01*
X119507000Y-107365155D01*
X119736890Y-107486476D01*
X119884099Y-107441825D01*
X120146920Y-107316641D01*
X120380269Y-107142588D01*
X120575178Y-106926355D01*
X120709342Y-106701123D01*
X120769527Y-106813721D01*
X120941603Y-107023397D01*
X121151279Y-107195473D01*
X121390495Y-107323337D01*
X121650061Y-107402075D01*
X121852360Y-107422000D01*
X121987640Y-107422000D01*
X122189939Y-107402075D01*
X122316590Y-107363656D01*
X123595320Y-108642387D01*
X123615736Y-108667264D01*
X123715016Y-108748741D01*
X123828283Y-108809283D01*
X123951185Y-108846565D01*
X124078999Y-108859154D01*
X124111021Y-108856000D01*
X125316978Y-108856000D01*
X125349000Y-108859154D01*
X125381022Y-108856000D01*
X125476814Y-108846565D01*
X125599717Y-108809283D01*
X125712984Y-108748741D01*
X125812264Y-108667264D01*
X125832685Y-108642381D01*
X126327554Y-108147512D01*
X161256783Y-108147512D01*
X161298213Y-108427130D01*
X161393397Y-108693292D01*
X161460329Y-108818514D01*
X161704298Y-108890097D01*
X162517395Y-108077000D01*
X162876605Y-108077000D01*
X163689702Y-108890097D01*
X163933671Y-108818514D01*
X164054571Y-108563004D01*
X164123300Y-108288816D01*
X164137217Y-108006488D01*
X164095787Y-107726870D01*
X164000603Y-107460708D01*
X163933671Y-107335486D01*
X163734340Y-107277000D01*
X165167451Y-107277000D01*
X165167451Y-108877000D01*
X165177626Y-108980310D01*
X165207761Y-109079650D01*
X165256696Y-109171202D01*
X165322552Y-109251448D01*
X165402798Y-109317304D01*
X165494350Y-109366239D01*
X165593690Y-109396374D01*
X165697000Y-109406549D01*
X167297000Y-109406549D01*
X167400310Y-109396374D01*
X167499650Y-109366239D01*
X167591202Y-109317304D01*
X167671448Y-109251448D01*
X167737304Y-109171202D01*
X167786239Y-109079650D01*
X167816374Y-108980310D01*
X167826549Y-108877000D01*
X167826549Y-107277000D01*
X167816374Y-107173690D01*
X167786239Y-107074350D01*
X167737304Y-106982798D01*
X167671448Y-106902552D01*
X167591202Y-106836696D01*
X167499650Y-106787761D01*
X167400310Y-106757626D01*
X167297000Y-106747451D01*
X165697000Y-106747451D01*
X165593690Y-106757626D01*
X165494350Y-106787761D01*
X165402798Y-106836696D01*
X165322552Y-106902552D01*
X165256696Y-106982798D01*
X165207761Y-107074350D01*
X165177626Y-107173690D01*
X165167451Y-107277000D01*
X163734340Y-107277000D01*
X163689702Y-107263903D01*
X162876605Y-108077000D01*
X162517395Y-108077000D01*
X161704298Y-107263903D01*
X161460329Y-107335486D01*
X161339429Y-107590996D01*
X161270700Y-107865184D01*
X161256783Y-108147512D01*
X126327554Y-108147512D01*
X127390768Y-107084298D01*
X161883903Y-107084298D01*
X162697000Y-107897395D01*
X163510097Y-107084298D01*
X163438514Y-106840329D01*
X163183004Y-106719429D01*
X162908816Y-106650700D01*
X162626488Y-106636783D01*
X162346870Y-106678213D01*
X162080708Y-106773397D01*
X161955486Y-106840329D01*
X161883903Y-107084298D01*
X127390768Y-107084298D01*
X128962388Y-105512679D01*
X128987264Y-105492264D01*
X129068741Y-105392984D01*
X129129283Y-105279717D01*
X129166565Y-105156814D01*
X129176000Y-105061022D01*
X129176000Y-105061021D01*
X129179154Y-105029001D01*
X129176000Y-104996979D01*
X129176000Y-92987976D01*
X129182976Y-92981000D01*
X130844296Y-92981000D01*
X130876318Y-92984154D01*
X130908340Y-92981000D01*
X131004132Y-92971565D01*
X131127035Y-92934283D01*
X131240302Y-92873741D01*
X131339582Y-92792264D01*
X131360003Y-92767381D01*
X132553337Y-91574048D01*
X132649571Y-91574048D01*
X132828666Y-91538424D01*
X132997369Y-91468544D01*
X133149198Y-91367096D01*
X133278318Y-91237976D01*
X133379766Y-91086147D01*
X133449646Y-90917444D01*
X133485270Y-90738349D01*
X133485270Y-90555747D01*
X133449646Y-90376652D01*
X133379766Y-90207949D01*
X133278318Y-90056120D01*
X133149198Y-89927000D01*
X132997369Y-89825552D01*
X132828666Y-89755672D01*
X132649571Y-89720048D01*
X132563018Y-89720048D01*
X133747067Y-88536000D01*
X141454024Y-88536000D01*
X141522072Y-88604048D01*
X141673901Y-88705496D01*
X141842604Y-88775376D01*
X142021699Y-88811000D01*
X142204301Y-88811000D01*
X142383396Y-88775376D01*
X142552099Y-88705496D01*
X142703928Y-88604048D01*
X142833048Y-88474928D01*
X142934496Y-88323099D01*
X143004376Y-88154396D01*
X143040000Y-87975301D01*
X143040000Y-87792699D01*
X143004376Y-87613604D01*
X142934496Y-87444901D01*
X142833048Y-87293072D01*
X142703928Y-87163952D01*
X142552099Y-87062504D01*
X142383396Y-86992624D01*
X142204301Y-86957000D01*
X142021699Y-86957000D01*
X141842604Y-86992624D01*
X141673901Y-87062504D01*
X141522072Y-87163952D01*
X141454024Y-87232000D01*
X133509021Y-87232000D01*
X133476999Y-87228846D01*
X133349185Y-87241435D01*
X133226283Y-87278717D01*
X133113016Y-87339259D01*
X133013736Y-87420736D01*
X132993320Y-87445613D01*
X132626000Y-87812933D01*
X132626000Y-87792699D01*
X132590376Y-87613604D01*
X132520496Y-87444901D01*
X132419048Y-87293072D01*
X132289928Y-87163952D01*
X132138099Y-87062504D01*
X132132054Y-87060000D01*
X139655193Y-87060000D01*
X139810608Y-87124376D01*
X139989703Y-87160000D01*
X140172305Y-87160000D01*
X140351400Y-87124376D01*
X140520103Y-87054496D01*
X140671932Y-86953048D01*
X140801052Y-86823928D01*
X140902500Y-86672099D01*
X140972380Y-86503396D01*
X141008004Y-86324301D01*
X141008004Y-86141699D01*
X140972380Y-85962604D01*
X140902500Y-85793901D01*
X140801052Y-85642072D01*
X140671932Y-85512952D01*
X140520103Y-85411504D01*
X140351400Y-85341624D01*
X140172305Y-85306000D01*
X139989703Y-85306000D01*
X139810608Y-85341624D01*
X139655193Y-85406000D01*
X128506243Y-85406000D01*
X128456496Y-85285901D01*
X128355048Y-85134072D01*
X128225928Y-85004952D01*
X128074099Y-84903504D01*
X127905396Y-84833624D01*
X127726301Y-84798000D01*
X127543699Y-84798000D01*
X127364604Y-84833624D01*
X127195901Y-84903504D01*
X127044072Y-85004952D01*
X126914952Y-85134072D01*
X126813504Y-85285901D01*
X126743624Y-85454604D01*
X126708000Y-85633699D01*
X126708000Y-85816301D01*
X126743624Y-85995396D01*
X126813504Y-86164099D01*
X126914952Y-86315928D01*
X127044072Y-86445048D01*
X127195901Y-86546496D01*
X127351320Y-86610873D01*
X127529499Y-86789053D01*
X127555394Y-86820606D01*
X127586947Y-86846501D01*
X127586948Y-86846502D01*
X127681319Y-86923951D01*
X127743149Y-86957000D01*
X127824990Y-87000745D01*
X127980880Y-87048034D01*
X128102376Y-87060000D01*
X128102388Y-87060000D01*
X128142999Y-87064000D01*
X128183610Y-87060000D01*
X131265946Y-87060000D01*
X131259901Y-87062504D01*
X131108072Y-87163952D01*
X131040024Y-87232000D01*
X123349022Y-87232000D01*
X123317000Y-87228846D01*
X123189185Y-87241435D01*
X123127735Y-87260076D01*
X123066283Y-87278717D01*
X122953016Y-87339259D01*
X122853736Y-87420736D01*
X122833320Y-87445613D01*
X116336934Y-93942000D01*
X116240699Y-93942000D01*
X116061604Y-93977624D01*
X115892901Y-94047504D01*
X115741072Y-94148952D01*
X115611952Y-94278072D01*
X115510504Y-94429901D01*
X115440624Y-94598604D01*
X115405000Y-94777699D01*
X113632000Y-94777699D01*
X113632000Y-71545509D01*
X114078000Y-71545509D01*
X114078000Y-71964491D01*
X114159739Y-72375423D01*
X114320077Y-72762512D01*
X114552851Y-73110884D01*
X114849116Y-73407149D01*
X115197488Y-73639923D01*
X115584577Y-73800261D01*
X115995509Y-73882000D01*
X116414491Y-73882000D01*
X116825423Y-73800261D01*
X117212512Y-73639923D01*
X117560884Y-73407149D01*
X117857149Y-73110884D01*
X118089923Y-72762512D01*
X118250261Y-72375423D01*
X118332000Y-71964491D01*
X118332000Y-71545509D01*
X118330905Y-71540000D01*
X121810451Y-71540000D01*
X121810451Y-73240000D01*
X121820626Y-73343310D01*
X121850761Y-73442650D01*
X121899696Y-73534202D01*
X121965552Y-73614448D01*
X122045798Y-73680304D01*
X122137350Y-73729239D01*
X122236690Y-73759374D01*
X122340000Y-73769549D01*
X124040000Y-73769549D01*
X124143310Y-73759374D01*
X124242650Y-73729239D01*
X124334202Y-73680304D01*
X124414448Y-73614448D01*
X124480304Y-73534202D01*
X124529239Y-73442650D01*
X124559374Y-73343310D01*
X124569549Y-73240000D01*
X124569549Y-73140054D01*
X124579527Y-73158721D01*
X124751603Y-73368397D01*
X124961279Y-73540473D01*
X125200495Y-73668337D01*
X125460061Y-73747075D01*
X125662360Y-73767000D01*
X125797640Y-73767000D01*
X125999939Y-73747075D01*
X126259505Y-73668337D01*
X126498721Y-73540473D01*
X126708397Y-73368397D01*
X126880473Y-73158721D01*
X127008337Y-72919505D01*
X127087075Y-72659939D01*
X127113662Y-72390000D01*
X127087075Y-72120061D01*
X127008337Y-71860495D01*
X126880473Y-71621279D01*
X126708397Y-71411603D01*
X126498721Y-71239527D01*
X126259505Y-71111663D01*
X125999939Y-71032925D01*
X125797640Y-71013000D01*
X125662360Y-71013000D01*
X125460061Y-71032925D01*
X125200495Y-71111663D01*
X124961279Y-71239527D01*
X124751603Y-71411603D01*
X124579527Y-71621279D01*
X124569549Y-71639946D01*
X124569549Y-71540000D01*
X124559374Y-71436690D01*
X124529239Y-71337350D01*
X124480304Y-71245798D01*
X124414448Y-71165552D01*
X124334202Y-71099696D01*
X124242650Y-71050761D01*
X124143310Y-71020626D01*
X124040000Y-71010451D01*
X122340000Y-71010451D01*
X122236690Y-71020626D01*
X122137350Y-71050761D01*
X122045798Y-71099696D01*
X121965552Y-71165552D01*
X121899696Y-71245798D01*
X121850761Y-71337350D01*
X121820626Y-71436690D01*
X121810451Y-71540000D01*
X118330905Y-71540000D01*
X118250261Y-71134577D01*
X118089923Y-70747488D01*
X117857149Y-70399116D01*
X117560884Y-70102851D01*
X117212512Y-69870077D01*
X116825423Y-69709739D01*
X116414491Y-69628000D01*
X115995509Y-69628000D01*
X115584577Y-69709739D01*
X115197488Y-69870077D01*
X114849116Y-70102851D01*
X114552851Y-70399116D01*
X114320077Y-70747488D01*
X114159739Y-71134577D01*
X114078000Y-71545509D01*
X113632000Y-71545509D01*
X113632000Y-69182000D01*
X128778000Y-69182000D01*
X128778000Y-80645000D01*
X128778000Y-80645000D01*
G37*
X128778000Y-80645000D02*
X128787667Y-80693601D01*
X128815197Y-80734803D01*
X128856399Y-80762333D01*
X128905000Y-80772000D01*
X146050000Y-80772000D01*
X146098601Y-80762333D01*
X146139803Y-80734803D01*
X146167333Y-80693601D01*
X146177000Y-80645000D01*
X146177000Y-77378699D01*
X150457000Y-77378699D01*
X150457000Y-77561301D01*
X150492624Y-77740396D01*
X150562504Y-77909099D01*
X150663952Y-78060928D01*
X150732001Y-78128977D01*
X150732000Y-91915978D01*
X150728846Y-91948000D01*
X150741435Y-92075814D01*
X150759555Y-92135546D01*
X150778717Y-92198716D01*
X150839259Y-92311983D01*
X150920736Y-92411264D01*
X150945619Y-92431685D01*
X151727000Y-93213067D01*
X151727000Y-93309301D01*
X151762624Y-93488396D01*
X151832504Y-93657099D01*
X151933952Y-93808928D01*
X152063072Y-93938048D01*
X152214901Y-94039496D01*
X152383604Y-94109376D01*
X152562699Y-94145000D01*
X152745301Y-94145000D01*
X152924396Y-94109376D01*
X153093099Y-94039496D01*
X153244928Y-93938048D01*
X153312976Y-93870000D01*
X154669934Y-93870000D01*
X172236320Y-111436387D01*
X172256736Y-111461264D01*
X172356016Y-111542741D01*
X172469283Y-111603283D01*
X172592185Y-111640565D01*
X172719999Y-111653154D01*
X172752021Y-111650000D01*
X176333138Y-111650000D01*
X176395527Y-111766721D01*
X176567603Y-111976397D01*
X176777279Y-112148473D01*
X177016495Y-112276337D01*
X177276061Y-112355075D01*
X177478360Y-112375000D01*
X177613640Y-112375000D01*
X177815939Y-112355075D01*
X178075505Y-112276337D01*
X178314721Y-112148473D01*
X178524397Y-111976397D01*
X178696473Y-111766721D01*
X178824337Y-111527505D01*
X178903075Y-111267939D01*
X178929662Y-110998000D01*
X178903075Y-110728061D01*
X178824337Y-110468495D01*
X178696473Y-110229279D01*
X178524397Y-110019603D01*
X178314721Y-109847527D01*
X178091102Y-109728000D01*
X178314721Y-109608473D01*
X178524397Y-109436397D01*
X178696473Y-109226721D01*
X178824337Y-108987505D01*
X178903075Y-108727939D01*
X178929662Y-108458000D01*
X178903075Y-108188061D01*
X178824337Y-107928495D01*
X178696473Y-107689279D01*
X178524397Y-107479603D01*
X178314721Y-107307527D01*
X178091102Y-107188000D01*
X178314721Y-107068473D01*
X178524397Y-106896397D01*
X178696473Y-106686721D01*
X178824337Y-106447505D01*
X178903075Y-106187939D01*
X178929662Y-105918000D01*
X178903075Y-105648061D01*
X178824337Y-105388495D01*
X178696473Y-105149279D01*
X178524397Y-104939603D01*
X178314721Y-104767527D01*
X178296054Y-104757549D01*
X178396000Y-104757549D01*
X178499310Y-104747374D01*
X178598650Y-104717239D01*
X178690202Y-104668304D01*
X178770448Y-104602448D01*
X178836304Y-104522202D01*
X178885239Y-104430650D01*
X178915374Y-104331310D01*
X178925549Y-104228000D01*
X178925549Y-102528000D01*
X178915374Y-102424690D01*
X178885239Y-102325350D01*
X178836304Y-102233798D01*
X178770448Y-102153552D01*
X178690202Y-102087696D01*
X178598650Y-102038761D01*
X178499310Y-102008626D01*
X178396000Y-101998451D01*
X176696000Y-101998451D01*
X176592690Y-102008626D01*
X176493350Y-102038761D01*
X176401798Y-102087696D01*
X176321552Y-102153552D01*
X176255696Y-102233798D01*
X176206761Y-102325350D01*
X176176626Y-102424690D01*
X176166451Y-102528000D01*
X176166451Y-102551000D01*
X170649555Y-102551000D01*
X165477874Y-97379321D01*
X165419000Y-97237189D01*
X165419000Y-92495285D01*
X165422995Y-92453354D01*
X165414941Y-92374160D01*
X165407034Y-92293880D01*
X165406646Y-92292600D01*
X165406512Y-92291285D01*
X165383081Y-92214917D01*
X165359745Y-92137990D01*
X165359118Y-92136817D01*
X165358728Y-92135546D01*
X165320711Y-92064963D01*
X165282952Y-91994321D01*
X165282109Y-91993294D01*
X165281478Y-91992122D01*
X165230296Y-91930160D01*
X165179606Y-91868394D01*
X165147039Y-91841667D01*
X154497000Y-81259218D01*
X154497000Y-78149811D01*
X154561376Y-77994396D01*
X154597000Y-77815301D01*
X154597000Y-77632699D01*
X154561376Y-77453604D01*
X154491496Y-77284901D01*
X154390048Y-77133072D01*
X154260928Y-77003952D01*
X154109099Y-76902504D01*
X153940396Y-76832624D01*
X153761301Y-76797000D01*
X153578699Y-76797000D01*
X153399604Y-76832624D01*
X153230901Y-76902504D01*
X153079072Y-77003952D01*
X152949952Y-77133072D01*
X152848504Y-77284901D01*
X152778624Y-77453604D01*
X152743000Y-77632699D01*
X152743000Y-77815301D01*
X152778624Y-77994396D01*
X152843001Y-78149813D01*
X152843000Y-81564019D01*
X152839004Y-81605960D01*
X152847075Y-81685313D01*
X152854966Y-81765434D01*
X152855354Y-81766714D01*
X152855488Y-81768029D01*
X152878906Y-81844354D01*
X152902255Y-81921324D01*
X152902883Y-81922499D01*
X152903272Y-81923767D01*
X152941318Y-81994405D01*
X152979048Y-82064993D01*
X152979888Y-82066016D01*
X152980521Y-82067192D01*
X153031609Y-82129039D01*
X153082394Y-82190921D01*
X153114972Y-82217657D01*
X163765001Y-92800099D01*
X163765000Y-97237188D01*
X163700624Y-97392604D01*
X163665000Y-97571699D01*
X163665000Y-97754301D01*
X163700624Y-97933396D01*
X163770504Y-98102099D01*
X163871952Y-98253928D01*
X164001072Y-98383048D01*
X164152901Y-98484496D01*
X164308321Y-98548874D01*
X169693504Y-103934059D01*
X169719394Y-103965606D01*
X169750941Y-103991496D01*
X169750948Y-103991503D01*
X169845320Y-104068952D01*
X169988989Y-104145745D01*
X170036278Y-104160090D01*
X170144880Y-104193034D01*
X170266376Y-104205000D01*
X170266386Y-104205000D01*
X170307000Y-104209000D01*
X170347614Y-104205000D01*
X176166451Y-104205000D01*
X176166451Y-104228000D01*
X176176626Y-104331310D01*
X176206761Y-104430650D01*
X176255696Y-104522202D01*
X176321552Y-104602448D01*
X176401798Y-104668304D01*
X176493350Y-104717239D01*
X176592690Y-104747374D01*
X176696000Y-104757549D01*
X176795946Y-104757549D01*
X176777279Y-104767527D01*
X176567603Y-104939603D01*
X176395527Y-105149279D01*
X176333138Y-105266000D01*
X170196067Y-105266000D01*
X160291000Y-95360934D01*
X160291000Y-93749976D01*
X160359048Y-93681928D01*
X160460496Y-93530099D01*
X160530376Y-93361396D01*
X160566000Y-93182301D01*
X160566000Y-92999699D01*
X160530376Y-92820604D01*
X160460496Y-92651901D01*
X160359048Y-92500072D01*
X160229928Y-92370952D01*
X160078099Y-92269504D01*
X159909396Y-92199624D01*
X159730301Y-92164000D01*
X159547699Y-92164000D01*
X159368604Y-92199624D01*
X159199901Y-92269504D01*
X159048072Y-92370952D01*
X158940500Y-92478524D01*
X158832928Y-92370952D01*
X158681099Y-92269504D01*
X158512396Y-92199624D01*
X158333301Y-92164000D01*
X158150699Y-92164000D01*
X157971604Y-92199624D01*
X157802901Y-92269504D01*
X157651072Y-92370952D01*
X157521952Y-92500072D01*
X157420504Y-92651901D01*
X157350624Y-92820604D01*
X157315000Y-92999699D01*
X157315000Y-93182301D01*
X157350624Y-93361396D01*
X157420504Y-93530099D01*
X157521952Y-93681928D01*
X157590000Y-93749976D01*
X157590001Y-94945935D01*
X155423685Y-92779619D01*
X155403264Y-92754736D01*
X155303984Y-92673259D01*
X155190717Y-92612717D01*
X155067814Y-92575435D01*
X154972022Y-92566000D01*
X154940000Y-92562846D01*
X154907978Y-92566000D01*
X153312976Y-92566000D01*
X153244928Y-92497952D01*
X153093099Y-92396504D01*
X152924396Y-92326624D01*
X152745301Y-92291000D01*
X152649067Y-92291000D01*
X152036000Y-91677934D01*
X152036000Y-78128976D01*
X152104048Y-78060928D01*
X152205496Y-77909099D01*
X152275376Y-77740396D01*
X152311000Y-77561301D01*
X152311000Y-77378699D01*
X152275376Y-77199604D01*
X152205496Y-77030901D01*
X152104048Y-76879072D01*
X151974928Y-76749952D01*
X151823099Y-76648504D01*
X151654396Y-76578624D01*
X151475301Y-76543000D01*
X151292699Y-76543000D01*
X151113604Y-76578624D01*
X150944901Y-76648504D01*
X150793072Y-76749952D01*
X150663952Y-76879072D01*
X150562504Y-77030901D01*
X150492624Y-77199604D01*
X150457000Y-77378699D01*
X146177000Y-77378699D01*
X146177000Y-75921890D01*
X147148524Y-75921890D01*
X147193175Y-76069099D01*
X147318359Y-76331920D01*
X147492412Y-76565269D01*
X147708645Y-76760178D01*
X147958748Y-76909157D01*
X148233109Y-77006481D01*
X148463000Y-76885814D01*
X148463000Y-75692000D01*
X148717000Y-75692000D01*
X148717000Y-76885814D01*
X148946891Y-77006481D01*
X149221252Y-76909157D01*
X149471355Y-76760178D01*
X149687588Y-76565269D01*
X149861641Y-76331920D01*
X149986825Y-76069099D01*
X150031476Y-75921890D01*
X149910155Y-75692000D01*
X148717000Y-75692000D01*
X148463000Y-75692000D01*
X147269845Y-75692000D01*
X147148524Y-75921890D01*
X146177000Y-75921890D01*
X146177000Y-69182000D01*
X147469551Y-69182000D01*
X147445798Y-69194696D01*
X147365552Y-69260552D01*
X147299696Y-69340798D01*
X147250761Y-69432350D01*
X147220626Y-69531690D01*
X147210451Y-69635000D01*
X147210451Y-71335000D01*
X147220626Y-71438310D01*
X147250761Y-71537650D01*
X147299696Y-71629202D01*
X147365552Y-71709448D01*
X147445798Y-71775304D01*
X147537350Y-71824239D01*
X147636690Y-71854374D01*
X147740000Y-71864549D01*
X147839946Y-71864549D01*
X147821279Y-71874527D01*
X147611603Y-72046603D01*
X147439527Y-72256279D01*
X147311663Y-72495495D01*
X147232925Y-72755061D01*
X147206338Y-73025000D01*
X147232925Y-73294939D01*
X147311663Y-73554505D01*
X147439527Y-73793721D01*
X147611603Y-74003397D01*
X147821279Y-74175473D01*
X147933877Y-74235658D01*
X147708645Y-74369822D01*
X147492412Y-74564731D01*
X147318359Y-74798080D01*
X147193175Y-75060901D01*
X147148524Y-75208110D01*
X147269845Y-75438000D01*
X148463000Y-75438000D01*
X148463000Y-75418000D01*
X148717000Y-75418000D01*
X148717000Y-75438000D01*
X149910155Y-75438000D01*
X150031476Y-75208110D01*
X149986825Y-75060901D01*
X149861641Y-74798080D01*
X149687588Y-74564731D01*
X149471355Y-74369822D01*
X149246123Y-74235658D01*
X149358721Y-74175473D01*
X149568397Y-74003397D01*
X149740473Y-73793721D01*
X149868337Y-73554505D01*
X149947075Y-73294939D01*
X149973662Y-73025000D01*
X149947075Y-72755061D01*
X149868337Y-72495495D01*
X149740473Y-72256279D01*
X149568397Y-72046603D01*
X149358721Y-71874527D01*
X149340054Y-71864549D01*
X149440000Y-71864549D01*
X149543310Y-71854374D01*
X149642650Y-71824239D01*
X149734202Y-71775304D01*
X149814448Y-71709448D01*
X149880304Y-71629202D01*
X149929239Y-71537650D01*
X149959374Y-71438310D01*
X149969549Y-71335000D01*
X149969549Y-69635000D01*
X149959374Y-69531690D01*
X149929239Y-69432350D01*
X149880304Y-69340798D01*
X149814448Y-69260552D01*
X149734202Y-69194696D01*
X149710449Y-69182000D01*
X161476799Y-69182000D01*
X161395495Y-69206663D01*
X161156279Y-69334527D01*
X160946603Y-69506603D01*
X160774527Y-69716279D01*
X160646663Y-69955495D01*
X160567925Y-70215061D01*
X160541338Y-70485000D01*
X160567925Y-70754939D01*
X160646663Y-71014505D01*
X160774527Y-71253721D01*
X160946603Y-71463397D01*
X161156279Y-71635473D01*
X161395495Y-71763337D01*
X161655061Y-71842075D01*
X161857360Y-71862000D01*
X161992640Y-71862000D01*
X162194939Y-71842075D01*
X162454505Y-71763337D01*
X162693721Y-71635473D01*
X162903397Y-71463397D01*
X163075473Y-71253721D01*
X163195000Y-71030102D01*
X163314527Y-71253721D01*
X163486603Y-71463397D01*
X163696279Y-71635473D01*
X163935495Y-71763337D01*
X164195061Y-71842075D01*
X164397360Y-71862000D01*
X164532640Y-71862000D01*
X164734939Y-71842075D01*
X164994505Y-71763337D01*
X165233721Y-71635473D01*
X165443397Y-71463397D01*
X165615473Y-71253721D01*
X165625451Y-71235054D01*
X165625451Y-71335000D01*
X165635626Y-71438310D01*
X165665761Y-71537650D01*
X165714696Y-71629202D01*
X165780552Y-71709448D01*
X165860798Y-71775304D01*
X165952350Y-71824239D01*
X166051690Y-71854374D01*
X166155000Y-71864549D01*
X167855000Y-71864549D01*
X167958310Y-71854374D01*
X168057650Y-71824239D01*
X168149202Y-71775304D01*
X168229448Y-71709448D01*
X168295304Y-71629202D01*
X168340038Y-71545509D01*
X175043000Y-71545509D01*
X175043000Y-71964491D01*
X175124739Y-72375423D01*
X175285077Y-72762512D01*
X175517851Y-73110884D01*
X175814116Y-73407149D01*
X176162488Y-73639923D01*
X176549577Y-73800261D01*
X176960509Y-73882000D01*
X177379491Y-73882000D01*
X177790423Y-73800261D01*
X178177512Y-73639923D01*
X178525884Y-73407149D01*
X178822149Y-73110884D01*
X179054923Y-72762512D01*
X179215261Y-72375423D01*
X179297000Y-71964491D01*
X179297000Y-71545509D01*
X179215261Y-71134577D01*
X179054923Y-70747488D01*
X178822149Y-70399116D01*
X178525884Y-70102851D01*
X178177512Y-69870077D01*
X177790423Y-69709739D01*
X177379491Y-69628000D01*
X176960509Y-69628000D01*
X176549577Y-69709739D01*
X176162488Y-69870077D01*
X175814116Y-70102851D01*
X175517851Y-70399116D01*
X175285077Y-70747488D01*
X175124739Y-71134577D01*
X175043000Y-71545509D01*
X168340038Y-71545509D01*
X168344239Y-71537650D01*
X168374374Y-71438310D01*
X168384549Y-71335000D01*
X168384549Y-69635000D01*
X168374374Y-69531690D01*
X168344239Y-69432350D01*
X168295304Y-69340798D01*
X168229448Y-69260552D01*
X168149202Y-69194696D01*
X168125449Y-69182000D01*
X179738000Y-69182000D01*
X179738000Y-77517191D01*
X170815000Y-77517191D01*
X170766399Y-77526858D01*
X170725197Y-77554388D01*
X170697667Y-77595590D01*
X170688000Y-77644191D01*
X170688000Y-98599191D01*
X170697667Y-98647792D01*
X170725197Y-98688994D01*
X170766399Y-98716524D01*
X170815000Y-98726191D01*
X179738001Y-98726191D01*
X179738001Y-121953224D01*
X113632000Y-121977777D01*
X113632000Y-119170509D01*
X114078000Y-119170509D01*
X114078000Y-119589491D01*
X114159739Y-120000423D01*
X114320077Y-120387512D01*
X114552851Y-120735884D01*
X114849116Y-121032149D01*
X115197488Y-121264923D01*
X115584577Y-121425261D01*
X115995509Y-121507000D01*
X116414491Y-121507000D01*
X116825423Y-121425261D01*
X117212512Y-121264923D01*
X117560884Y-121032149D01*
X117857149Y-120735884D01*
X118089923Y-120387512D01*
X118250261Y-120000423D01*
X118332000Y-119589491D01*
X118332000Y-119170509D01*
X118250261Y-118759577D01*
X118089923Y-118372488D01*
X117940594Y-118149000D01*
X127652451Y-118149000D01*
X127652451Y-119849000D01*
X127662626Y-119952310D01*
X127692761Y-120051650D01*
X127741696Y-120143202D01*
X127807552Y-120223448D01*
X127887798Y-120289304D01*
X127979350Y-120338239D01*
X128078690Y-120368374D01*
X128182000Y-120378549D01*
X129882000Y-120378549D01*
X129985310Y-120368374D01*
X130084650Y-120338239D01*
X130176202Y-120289304D01*
X130256448Y-120223448D01*
X130322304Y-120143202D01*
X130371239Y-120051650D01*
X130401374Y-119952310D01*
X130405344Y-119911998D01*
X130571731Y-120096588D01*
X130805080Y-120270641D01*
X131067901Y-120395825D01*
X131215110Y-120440476D01*
X131445000Y-120319155D01*
X131445000Y-119126000D01*
X131425000Y-119126000D01*
X131425000Y-118872000D01*
X131445000Y-118872000D01*
X131445000Y-117678845D01*
X131699000Y-117678845D01*
X131699000Y-118872000D01*
X131719000Y-118872000D01*
X131719000Y-119126000D01*
X131699000Y-119126000D01*
X131699000Y-120319155D01*
X131928890Y-120440476D01*
X132076099Y-120395825D01*
X132338920Y-120270641D01*
X132572269Y-120096588D01*
X132767178Y-119880355D01*
X132901342Y-119655123D01*
X132961527Y-119767721D01*
X133133603Y-119977397D01*
X133343279Y-120149473D01*
X133582495Y-120277337D01*
X133842061Y-120356075D01*
X134044360Y-120376000D01*
X134179640Y-120376000D01*
X134381939Y-120356075D01*
X134641505Y-120277337D01*
X134880721Y-120149473D01*
X135090397Y-119977397D01*
X135262473Y-119767721D01*
X135390337Y-119528505D01*
X135469075Y-119268939D01*
X135478769Y-119170509D01*
X175043000Y-119170509D01*
X175043000Y-119589491D01*
X175124739Y-120000423D01*
X175285077Y-120387512D01*
X175517851Y-120735884D01*
X175814116Y-121032149D01*
X176162488Y-121264923D01*
X176549577Y-121425261D01*
X176960509Y-121507000D01*
X177379491Y-121507000D01*
X177790423Y-121425261D01*
X178177512Y-121264923D01*
X178525884Y-121032149D01*
X178822149Y-120735884D01*
X179054923Y-120387512D01*
X179215261Y-120000423D01*
X179297000Y-119589491D01*
X179297000Y-119170509D01*
X179215261Y-118759577D01*
X179054923Y-118372488D01*
X178822149Y-118024116D01*
X178525884Y-117727851D01*
X178177512Y-117495077D01*
X177790423Y-117334739D01*
X177379491Y-117253000D01*
X176960509Y-117253000D01*
X176549577Y-117334739D01*
X176162488Y-117495077D01*
X175814116Y-117727851D01*
X175517851Y-118024116D01*
X175285077Y-118372488D01*
X175124739Y-118759577D01*
X175043000Y-119170509D01*
X135478769Y-119170509D01*
X135495662Y-118999000D01*
X135469075Y-118729061D01*
X135390337Y-118469495D01*
X135262473Y-118230279D01*
X135240662Y-118203702D01*
X142696903Y-118203702D01*
X142768486Y-118447671D01*
X143023996Y-118568571D01*
X143298184Y-118637300D01*
X143580512Y-118651217D01*
X143860130Y-118609787D01*
X144126292Y-118514603D01*
X144251514Y-118447671D01*
X144323097Y-118203702D01*
X143510000Y-117390605D01*
X142696903Y-118203702D01*
X135240662Y-118203702D01*
X135090397Y-118020603D01*
X134880721Y-117848527D01*
X134641505Y-117720663D01*
X134381939Y-117641925D01*
X134179640Y-117622000D01*
X134044360Y-117622000D01*
X133842061Y-117641925D01*
X133582495Y-117720663D01*
X133343279Y-117848527D01*
X133133603Y-118020603D01*
X132961527Y-118230279D01*
X132901342Y-118342877D01*
X132767178Y-118117645D01*
X132572269Y-117901412D01*
X132338920Y-117727359D01*
X132076099Y-117602175D01*
X131928890Y-117557524D01*
X131699000Y-117678845D01*
X131445000Y-117678845D01*
X131215110Y-117557524D01*
X131067901Y-117602175D01*
X130805080Y-117727359D01*
X130571731Y-117901412D01*
X130405344Y-118086002D01*
X130401374Y-118045690D01*
X130371239Y-117946350D01*
X130322304Y-117854798D01*
X130256448Y-117774552D01*
X130176202Y-117708696D01*
X130084650Y-117659761D01*
X129985310Y-117629626D01*
X129882000Y-117619451D01*
X128182000Y-117619451D01*
X128078690Y-117629626D01*
X127979350Y-117659761D01*
X127887798Y-117708696D01*
X127807552Y-117774552D01*
X127741696Y-117854798D01*
X127692761Y-117946350D01*
X127662626Y-118045690D01*
X127652451Y-118149000D01*
X117940594Y-118149000D01*
X117857149Y-118024116D01*
X117560884Y-117727851D01*
X117212512Y-117495077D01*
X116825423Y-117334739D01*
X116557832Y-117281512D01*
X142069783Y-117281512D01*
X142111213Y-117561130D01*
X142206397Y-117827292D01*
X142273329Y-117952514D01*
X142517298Y-118024097D01*
X143330395Y-117211000D01*
X143689605Y-117211000D01*
X144502702Y-118024097D01*
X144746671Y-117952514D01*
X144867571Y-117697004D01*
X144936300Y-117422816D01*
X144950217Y-117140488D01*
X144908787Y-116860870D01*
X144813603Y-116594708D01*
X144746671Y-116469486D01*
X144502702Y-116397903D01*
X143689605Y-117211000D01*
X143330395Y-117211000D01*
X142517298Y-116397903D01*
X142273329Y-116469486D01*
X142152429Y-116724996D01*
X142083700Y-116999184D01*
X142069783Y-117281512D01*
X116557832Y-117281512D01*
X116414491Y-117253000D01*
X115995509Y-117253000D01*
X115584577Y-117334739D01*
X115197488Y-117495077D01*
X114849116Y-117727851D01*
X114552851Y-118024116D01*
X114320077Y-118372488D01*
X114159739Y-118759577D01*
X114078000Y-119170509D01*
X113632000Y-119170509D01*
X113632000Y-116218298D01*
X142696903Y-116218298D01*
X143510000Y-117031395D01*
X144323097Y-116218298D01*
X144251514Y-115974329D01*
X143996004Y-115853429D01*
X143721816Y-115784700D01*
X143439488Y-115770783D01*
X143159870Y-115812213D01*
X142893708Y-115907397D01*
X142768486Y-115974329D01*
X142696903Y-116218298D01*
X113632000Y-116218298D01*
X113632000Y-112611000D01*
X142180451Y-112611000D01*
X142180451Y-114211000D01*
X142190626Y-114314310D01*
X142220761Y-114413650D01*
X142269696Y-114505202D01*
X142335552Y-114585448D01*
X142415798Y-114651304D01*
X142507350Y-114700239D01*
X142606690Y-114730374D01*
X142710000Y-114740549D01*
X144310000Y-114740549D01*
X144413310Y-114730374D01*
X144512650Y-114700239D01*
X144604202Y-114651304D01*
X144684448Y-114585448D01*
X144750304Y-114505202D01*
X144799239Y-114413650D01*
X144829374Y-114314310D01*
X144839549Y-114211000D01*
X144839549Y-112611000D01*
X144829374Y-112507690D01*
X144799239Y-112408350D01*
X144750304Y-112316798D01*
X144684448Y-112236552D01*
X144604202Y-112170696D01*
X144512650Y-112121761D01*
X144413310Y-112091626D01*
X144310000Y-112081451D01*
X142710000Y-112081451D01*
X142606690Y-112091626D01*
X142507350Y-112121761D01*
X142415798Y-112170696D01*
X142335552Y-112236552D01*
X142269696Y-112316798D01*
X142220761Y-112408350D01*
X142190626Y-112507690D01*
X142180451Y-112611000D01*
X113632000Y-112611000D01*
X113632000Y-109069702D01*
X161883903Y-109069702D01*
X161955486Y-109313671D01*
X162210996Y-109434571D01*
X162485184Y-109503300D01*
X162767512Y-109517217D01*
X163047130Y-109475787D01*
X163313292Y-109380603D01*
X163438514Y-109313671D01*
X163510097Y-109069702D01*
X162697000Y-108256605D01*
X161883903Y-109069702D01*
X113632000Y-109069702D01*
X113632000Y-106401891D01*
X117938519Y-106401891D01*
X118035843Y-106676252D01*
X118184822Y-106926355D01*
X118379731Y-107142588D01*
X118613080Y-107316641D01*
X118875901Y-107441825D01*
X119023110Y-107486476D01*
X119253000Y-107365155D01*
X119253000Y-106172000D01*
X118059186Y-106172000D01*
X117938519Y-106401891D01*
X113632000Y-106401891D01*
X113632000Y-94777699D01*
X115405000Y-94777699D01*
X115405000Y-94960301D01*
X115440624Y-95139396D01*
X115510504Y-95308099D01*
X115611952Y-95459928D01*
X115741072Y-95589048D01*
X115892901Y-95690496D01*
X116061604Y-95760376D01*
X116240699Y-95796000D01*
X116423301Y-95796000D01*
X116602396Y-95760376D01*
X116771099Y-95690496D01*
X116922928Y-95589048D01*
X117052048Y-95459928D01*
X117153496Y-95308099D01*
X117223376Y-95139396D01*
X117259000Y-94960301D01*
X117259000Y-94864066D01*
X123587067Y-88536000D01*
X131040024Y-88536000D01*
X131108072Y-88604048D01*
X131259901Y-88705496D01*
X131428604Y-88775376D01*
X131607699Y-88811000D01*
X131627934Y-88811000D01*
X130793934Y-89645000D01*
X126769976Y-89645000D01*
X126701928Y-89576952D01*
X126550099Y-89475504D01*
X126381396Y-89405624D01*
X126202301Y-89370000D01*
X126019699Y-89370000D01*
X125840604Y-89405624D01*
X125671901Y-89475504D01*
X125520072Y-89576952D01*
X125390952Y-89706072D01*
X125289504Y-89857901D01*
X125219624Y-90026604D01*
X125184000Y-90205699D01*
X125184000Y-90388301D01*
X125219624Y-90567396D01*
X125289504Y-90736099D01*
X125390952Y-90887928D01*
X125520072Y-91017048D01*
X125671901Y-91118496D01*
X125840604Y-91188376D01*
X126019699Y-91224000D01*
X126115933Y-91224000D01*
X126348000Y-91456067D01*
X126348001Y-96369023D01*
X126279952Y-96437072D01*
X126178504Y-96588901D01*
X126108624Y-96757604D01*
X126073000Y-96936699D01*
X126073000Y-97119301D01*
X126108624Y-97298396D01*
X126178504Y-97467099D01*
X126279952Y-97618928D01*
X126409072Y-97748048D01*
X126560901Y-97849496D01*
X126729604Y-97919376D01*
X126908699Y-97955000D01*
X127091301Y-97955000D01*
X127270396Y-97919376D01*
X127439099Y-97849496D01*
X127590928Y-97748048D01*
X127720048Y-97618928D01*
X127821496Y-97467099D01*
X127872001Y-97345172D01*
X127872000Y-104758933D01*
X125078934Y-107552000D01*
X124349067Y-107552000D01*
X124200134Y-107403067D01*
X124392360Y-107422000D01*
X124527640Y-107422000D01*
X124729939Y-107402075D01*
X124989505Y-107323337D01*
X125228721Y-107195473D01*
X125438397Y-107023397D01*
X125610473Y-106813721D01*
X125738337Y-106574505D01*
X125817075Y-106314939D01*
X125843662Y-106045000D01*
X125817075Y-105775061D01*
X125738337Y-105515495D01*
X125610473Y-105276279D01*
X125438397Y-105066603D01*
X125228721Y-104894527D01*
X125210054Y-104884549D01*
X125310000Y-104884549D01*
X125413310Y-104874374D01*
X125512650Y-104844239D01*
X125604202Y-104795304D01*
X125684448Y-104729448D01*
X125750304Y-104649202D01*
X125799239Y-104557650D01*
X125829374Y-104458310D01*
X125839549Y-104355000D01*
X125839549Y-102655000D01*
X125829374Y-102551690D01*
X125799239Y-102452350D01*
X125750304Y-102360798D01*
X125684448Y-102280552D01*
X125604202Y-102214696D01*
X125512650Y-102165761D01*
X125413310Y-102135626D01*
X125310000Y-102125451D01*
X123610000Y-102125451D01*
X123506690Y-102135626D01*
X123407350Y-102165761D01*
X123315798Y-102214696D01*
X123235552Y-102280552D01*
X123169696Y-102360798D01*
X123120761Y-102452350D01*
X123090626Y-102551690D01*
X123080451Y-102655000D01*
X123080451Y-102754946D01*
X123070473Y-102736279D01*
X122898397Y-102526603D01*
X122688721Y-102354527D01*
X122572000Y-102292138D01*
X122572000Y-94526000D01*
X122646301Y-94526000D01*
X122825396Y-94490376D01*
X122994099Y-94420496D01*
X123145928Y-94319048D01*
X123275048Y-94189928D01*
X123376496Y-94038099D01*
X123446376Y-93869396D01*
X123482000Y-93690301D01*
X123482000Y-93507699D01*
X123446376Y-93328604D01*
X123376496Y-93159901D01*
X123275048Y-93008072D01*
X123145928Y-92878952D01*
X122994099Y-92777504D01*
X122825396Y-92707624D01*
X122646301Y-92672000D01*
X122463699Y-92672000D01*
X122284604Y-92707624D01*
X122115901Y-92777504D01*
X121964072Y-92878952D01*
X121834952Y-93008072D01*
X121733504Y-93159901D01*
X121663624Y-93328604D01*
X121628000Y-93507699D01*
X121628000Y-93603934D01*
X121481614Y-93750320D01*
X121456737Y-93770736D01*
X121375260Y-93870016D01*
X121373583Y-93873154D01*
X121314717Y-93983284D01*
X121277435Y-94106186D01*
X121264846Y-94234000D01*
X121268001Y-94266032D01*
X121268000Y-102292138D01*
X121151279Y-102354527D01*
X120941603Y-102526603D01*
X120769527Y-102736279D01*
X120650000Y-102959898D01*
X120530473Y-102736279D01*
X120358397Y-102526603D01*
X120148721Y-102354527D01*
X119909505Y-102226663D01*
X119649939Y-102147925D01*
X119447640Y-102128000D01*
X119312360Y-102128000D01*
X119110061Y-102147925D01*
X118850495Y-102226663D01*
X118611279Y-102354527D01*
X118401603Y-102526603D01*
X118229527Y-102736279D01*
X118101663Y-102975495D01*
X118022925Y-103235061D01*
X117996338Y-103505000D01*
X118022925Y-103774939D01*
X118101663Y-104034505D01*
X118229527Y-104273721D01*
X118401603Y-104483397D01*
X118611279Y-104655473D01*
X118728752Y-104718264D01*
X118613080Y-104773359D01*
X118379731Y-104947412D01*
X118184822Y-105163645D01*
X118035843Y-105413748D01*
X117938519Y-105688109D01*
X118059186Y-105918000D01*
X119253000Y-105918000D01*
X119253000Y-105898000D01*
X119507000Y-105898000D01*
X119507000Y-105918000D01*
X119527000Y-105918000D01*
X119527000Y-106172000D01*
X119507000Y-106172000D01*
X119507000Y-107365155D01*
X119736890Y-107486476D01*
X119884099Y-107441825D01*
X120146920Y-107316641D01*
X120380269Y-107142588D01*
X120575178Y-106926355D01*
X120709342Y-106701123D01*
X120769527Y-106813721D01*
X120941603Y-107023397D01*
X121151279Y-107195473D01*
X121390495Y-107323337D01*
X121650061Y-107402075D01*
X121852360Y-107422000D01*
X121987640Y-107422000D01*
X122189939Y-107402075D01*
X122316590Y-107363656D01*
X123595320Y-108642387D01*
X123615736Y-108667264D01*
X123715016Y-108748741D01*
X123828283Y-108809283D01*
X123951185Y-108846565D01*
X124078999Y-108859154D01*
X124111021Y-108856000D01*
X125316978Y-108856000D01*
X125349000Y-108859154D01*
X125381022Y-108856000D01*
X125476814Y-108846565D01*
X125599717Y-108809283D01*
X125712984Y-108748741D01*
X125812264Y-108667264D01*
X125832685Y-108642381D01*
X126327554Y-108147512D01*
X161256783Y-108147512D01*
X161298213Y-108427130D01*
X161393397Y-108693292D01*
X161460329Y-108818514D01*
X161704298Y-108890097D01*
X162517395Y-108077000D01*
X162876605Y-108077000D01*
X163689702Y-108890097D01*
X163933671Y-108818514D01*
X164054571Y-108563004D01*
X164123300Y-108288816D01*
X164137217Y-108006488D01*
X164095787Y-107726870D01*
X164000603Y-107460708D01*
X163933671Y-107335486D01*
X163734340Y-107277000D01*
X165167451Y-107277000D01*
X165167451Y-108877000D01*
X165177626Y-108980310D01*
X165207761Y-109079650D01*
X165256696Y-109171202D01*
X165322552Y-109251448D01*
X165402798Y-109317304D01*
X165494350Y-109366239D01*
X165593690Y-109396374D01*
X165697000Y-109406549D01*
X167297000Y-109406549D01*
X167400310Y-109396374D01*
X167499650Y-109366239D01*
X167591202Y-109317304D01*
X167671448Y-109251448D01*
X167737304Y-109171202D01*
X167786239Y-109079650D01*
X167816374Y-108980310D01*
X167826549Y-108877000D01*
X167826549Y-107277000D01*
X167816374Y-107173690D01*
X167786239Y-107074350D01*
X167737304Y-106982798D01*
X167671448Y-106902552D01*
X167591202Y-106836696D01*
X167499650Y-106787761D01*
X167400310Y-106757626D01*
X167297000Y-106747451D01*
X165697000Y-106747451D01*
X165593690Y-106757626D01*
X165494350Y-106787761D01*
X165402798Y-106836696D01*
X165322552Y-106902552D01*
X165256696Y-106982798D01*
X165207761Y-107074350D01*
X165177626Y-107173690D01*
X165167451Y-107277000D01*
X163734340Y-107277000D01*
X163689702Y-107263903D01*
X162876605Y-108077000D01*
X162517395Y-108077000D01*
X161704298Y-107263903D01*
X161460329Y-107335486D01*
X161339429Y-107590996D01*
X161270700Y-107865184D01*
X161256783Y-108147512D01*
X126327554Y-108147512D01*
X127390768Y-107084298D01*
X161883903Y-107084298D01*
X162697000Y-107897395D01*
X163510097Y-107084298D01*
X163438514Y-106840329D01*
X163183004Y-106719429D01*
X162908816Y-106650700D01*
X162626488Y-106636783D01*
X162346870Y-106678213D01*
X162080708Y-106773397D01*
X161955486Y-106840329D01*
X161883903Y-107084298D01*
X127390768Y-107084298D01*
X128962388Y-105512679D01*
X128987264Y-105492264D01*
X129068741Y-105392984D01*
X129129283Y-105279717D01*
X129166565Y-105156814D01*
X129176000Y-105061022D01*
X129176000Y-105061021D01*
X129179154Y-105029001D01*
X129176000Y-104996979D01*
X129176000Y-92987976D01*
X129182976Y-92981000D01*
X130844296Y-92981000D01*
X130876318Y-92984154D01*
X130908340Y-92981000D01*
X131004132Y-92971565D01*
X131127035Y-92934283D01*
X131240302Y-92873741D01*
X131339582Y-92792264D01*
X131360003Y-92767381D01*
X132553337Y-91574048D01*
X132649571Y-91574048D01*
X132828666Y-91538424D01*
X132997369Y-91468544D01*
X133149198Y-91367096D01*
X133278318Y-91237976D01*
X133379766Y-91086147D01*
X133449646Y-90917444D01*
X133485270Y-90738349D01*
X133485270Y-90555747D01*
X133449646Y-90376652D01*
X133379766Y-90207949D01*
X133278318Y-90056120D01*
X133149198Y-89927000D01*
X132997369Y-89825552D01*
X132828666Y-89755672D01*
X132649571Y-89720048D01*
X132563018Y-89720048D01*
X133747067Y-88536000D01*
X141454024Y-88536000D01*
X141522072Y-88604048D01*
X141673901Y-88705496D01*
X141842604Y-88775376D01*
X142021699Y-88811000D01*
X142204301Y-88811000D01*
X142383396Y-88775376D01*
X142552099Y-88705496D01*
X142703928Y-88604048D01*
X142833048Y-88474928D01*
X142934496Y-88323099D01*
X143004376Y-88154396D01*
X143040000Y-87975301D01*
X143040000Y-87792699D01*
X143004376Y-87613604D01*
X142934496Y-87444901D01*
X142833048Y-87293072D01*
X142703928Y-87163952D01*
X142552099Y-87062504D01*
X142383396Y-86992624D01*
X142204301Y-86957000D01*
X142021699Y-86957000D01*
X141842604Y-86992624D01*
X141673901Y-87062504D01*
X141522072Y-87163952D01*
X141454024Y-87232000D01*
X133509021Y-87232000D01*
X133476999Y-87228846D01*
X133349185Y-87241435D01*
X133226283Y-87278717D01*
X133113016Y-87339259D01*
X133013736Y-87420736D01*
X132993320Y-87445613D01*
X132626000Y-87812933D01*
X132626000Y-87792699D01*
X132590376Y-87613604D01*
X132520496Y-87444901D01*
X132419048Y-87293072D01*
X132289928Y-87163952D01*
X132138099Y-87062504D01*
X132132054Y-87060000D01*
X139655193Y-87060000D01*
X139810608Y-87124376D01*
X139989703Y-87160000D01*
X140172305Y-87160000D01*
X140351400Y-87124376D01*
X140520103Y-87054496D01*
X140671932Y-86953048D01*
X140801052Y-86823928D01*
X140902500Y-86672099D01*
X140972380Y-86503396D01*
X141008004Y-86324301D01*
X141008004Y-86141699D01*
X140972380Y-85962604D01*
X140902500Y-85793901D01*
X140801052Y-85642072D01*
X140671932Y-85512952D01*
X140520103Y-85411504D01*
X140351400Y-85341624D01*
X140172305Y-85306000D01*
X139989703Y-85306000D01*
X139810608Y-85341624D01*
X139655193Y-85406000D01*
X128506243Y-85406000D01*
X128456496Y-85285901D01*
X128355048Y-85134072D01*
X128225928Y-85004952D01*
X128074099Y-84903504D01*
X127905396Y-84833624D01*
X127726301Y-84798000D01*
X127543699Y-84798000D01*
X127364604Y-84833624D01*
X127195901Y-84903504D01*
X127044072Y-85004952D01*
X126914952Y-85134072D01*
X126813504Y-85285901D01*
X126743624Y-85454604D01*
X126708000Y-85633699D01*
X126708000Y-85816301D01*
X126743624Y-85995396D01*
X126813504Y-86164099D01*
X126914952Y-86315928D01*
X127044072Y-86445048D01*
X127195901Y-86546496D01*
X127351320Y-86610873D01*
X127529499Y-86789053D01*
X127555394Y-86820606D01*
X127586947Y-86846501D01*
X127586948Y-86846502D01*
X127681319Y-86923951D01*
X127743149Y-86957000D01*
X127824990Y-87000745D01*
X127980880Y-87048034D01*
X128102376Y-87060000D01*
X128102388Y-87060000D01*
X128142999Y-87064000D01*
X128183610Y-87060000D01*
X131265946Y-87060000D01*
X131259901Y-87062504D01*
X131108072Y-87163952D01*
X131040024Y-87232000D01*
X123349022Y-87232000D01*
X123317000Y-87228846D01*
X123189185Y-87241435D01*
X123127735Y-87260076D01*
X123066283Y-87278717D01*
X122953016Y-87339259D01*
X122853736Y-87420736D01*
X122833320Y-87445613D01*
X116336934Y-93942000D01*
X116240699Y-93942000D01*
X116061604Y-93977624D01*
X115892901Y-94047504D01*
X115741072Y-94148952D01*
X115611952Y-94278072D01*
X115510504Y-94429901D01*
X115440624Y-94598604D01*
X115405000Y-94777699D01*
X113632000Y-94777699D01*
X113632000Y-71545509D01*
X114078000Y-71545509D01*
X114078000Y-71964491D01*
X114159739Y-72375423D01*
X114320077Y-72762512D01*
X114552851Y-73110884D01*
X114849116Y-73407149D01*
X115197488Y-73639923D01*
X115584577Y-73800261D01*
X115995509Y-73882000D01*
X116414491Y-73882000D01*
X116825423Y-73800261D01*
X117212512Y-73639923D01*
X117560884Y-73407149D01*
X117857149Y-73110884D01*
X118089923Y-72762512D01*
X118250261Y-72375423D01*
X118332000Y-71964491D01*
X118332000Y-71545509D01*
X118330905Y-71540000D01*
X121810451Y-71540000D01*
X121810451Y-73240000D01*
X121820626Y-73343310D01*
X121850761Y-73442650D01*
X121899696Y-73534202D01*
X121965552Y-73614448D01*
X122045798Y-73680304D01*
X122137350Y-73729239D01*
X122236690Y-73759374D01*
X122340000Y-73769549D01*
X124040000Y-73769549D01*
X124143310Y-73759374D01*
X124242650Y-73729239D01*
X124334202Y-73680304D01*
X124414448Y-73614448D01*
X124480304Y-73534202D01*
X124529239Y-73442650D01*
X124559374Y-73343310D01*
X124569549Y-73240000D01*
X124569549Y-73140054D01*
X124579527Y-73158721D01*
X124751603Y-73368397D01*
X124961279Y-73540473D01*
X125200495Y-73668337D01*
X125460061Y-73747075D01*
X125662360Y-73767000D01*
X125797640Y-73767000D01*
X125999939Y-73747075D01*
X126259505Y-73668337D01*
X126498721Y-73540473D01*
X126708397Y-73368397D01*
X126880473Y-73158721D01*
X127008337Y-72919505D01*
X127087075Y-72659939D01*
X127113662Y-72390000D01*
X127087075Y-72120061D01*
X127008337Y-71860495D01*
X126880473Y-71621279D01*
X126708397Y-71411603D01*
X126498721Y-71239527D01*
X126259505Y-71111663D01*
X125999939Y-71032925D01*
X125797640Y-71013000D01*
X125662360Y-71013000D01*
X125460061Y-71032925D01*
X125200495Y-71111663D01*
X124961279Y-71239527D01*
X124751603Y-71411603D01*
X124579527Y-71621279D01*
X124569549Y-71639946D01*
X124569549Y-71540000D01*
X124559374Y-71436690D01*
X124529239Y-71337350D01*
X124480304Y-71245798D01*
X124414448Y-71165552D01*
X124334202Y-71099696D01*
X124242650Y-71050761D01*
X124143310Y-71020626D01*
X124040000Y-71010451D01*
X122340000Y-71010451D01*
X122236690Y-71020626D01*
X122137350Y-71050761D01*
X122045798Y-71099696D01*
X121965552Y-71165552D01*
X121899696Y-71245798D01*
X121850761Y-71337350D01*
X121820626Y-71436690D01*
X121810451Y-71540000D01*
X118330905Y-71540000D01*
X118250261Y-71134577D01*
X118089923Y-70747488D01*
X117857149Y-70399116D01*
X117560884Y-70102851D01*
X117212512Y-69870077D01*
X116825423Y-69709739D01*
X116414491Y-69628000D01*
X115995509Y-69628000D01*
X115584577Y-69709739D01*
X115197488Y-69870077D01*
X114849116Y-70102851D01*
X114552851Y-70399116D01*
X114320077Y-70747488D01*
X114159739Y-71134577D01*
X114078000Y-71545509D01*
X113632000Y-71545509D01*
X113632000Y-69182000D01*
X128778000Y-69182000D01*
X128778000Y-80645000D01*
M02*
