%TF.GenerationSoftware,KiCad,Pcbnew,5.0.2-bee76a0~70~ubuntu18.04.1*%
%TF.CreationDate,2019-02-11T00:28:03+03:00*%
%TF.ProjectId,jeep-radio,6a656570-2d72-4616-9469-6f2e6b696361,rev?*%
%TF.SameCoordinates,Original*%
%TF.FileFunction,Soldermask,Bot*%
%TF.FilePolarity,Negative*%
%FSLAX46Y46*%
G04 Gerber Fmt 4.6, Leading zero omitted, Abs format (unit mm)*
G04 Created by KiCad (PCBNEW 5.0.2-bee76a0~70~ubuntu18.04.1) date Пн 11 фев 2019 00:28:03*
%MOMM*%
%LPD*%
G01*
G04 APERTURE LIST*
%ADD10C,0.100000*%
G04 APERTURE END LIST*
D10*
G36*
X177579122Y-117626115D02*
X177695041Y-117649173D01*
X178022620Y-117784861D01*
X178117807Y-117848463D01*
X178317436Y-117981851D01*
X178568149Y-118232564D01*
X178568151Y-118232567D01*
X178765139Y-118527380D01*
X178875231Y-118793164D01*
X178900827Y-118854960D01*
X178929479Y-118999000D01*
X178970000Y-119202716D01*
X178970000Y-119557284D01*
X178900827Y-119905041D01*
X178847490Y-120033807D01*
X178765140Y-120232618D01*
X178568149Y-120527436D01*
X178317436Y-120778149D01*
X178317433Y-120778151D01*
X178022620Y-120975139D01*
X177695041Y-121110827D01*
X177579122Y-121133885D01*
X177347286Y-121180000D01*
X176992714Y-121180000D01*
X176760878Y-121133885D01*
X176644959Y-121110827D01*
X176317380Y-120975139D01*
X176022567Y-120778151D01*
X176022564Y-120778149D01*
X175771851Y-120527436D01*
X175574860Y-120232618D01*
X175492510Y-120033807D01*
X175439173Y-119905041D01*
X175370000Y-119557284D01*
X175370000Y-119202716D01*
X175410522Y-118999000D01*
X175439173Y-118854960D01*
X175464770Y-118793164D01*
X175574861Y-118527380D01*
X175771849Y-118232567D01*
X175771851Y-118232564D01*
X176022564Y-117981851D01*
X176222193Y-117848463D01*
X176317380Y-117784861D01*
X176644959Y-117649173D01*
X176760878Y-117626115D01*
X176992714Y-117580000D01*
X177347286Y-117580000D01*
X177579122Y-117626115D01*
X177579122Y-117626115D01*
G37*
G36*
X116614122Y-117626115D02*
X116730041Y-117649173D01*
X117057620Y-117784861D01*
X117152807Y-117848463D01*
X117352436Y-117981851D01*
X117603149Y-118232564D01*
X117603151Y-118232567D01*
X117800139Y-118527380D01*
X117910231Y-118793164D01*
X117935827Y-118854960D01*
X117964479Y-118999000D01*
X118005000Y-119202716D01*
X118005000Y-119557284D01*
X117935827Y-119905041D01*
X117882490Y-120033807D01*
X117800140Y-120232618D01*
X117603149Y-120527436D01*
X117352436Y-120778149D01*
X117352433Y-120778151D01*
X117057620Y-120975139D01*
X116730041Y-121110827D01*
X116614122Y-121133885D01*
X116382286Y-121180000D01*
X116027714Y-121180000D01*
X115795878Y-121133885D01*
X115679959Y-121110827D01*
X115352380Y-120975139D01*
X115057567Y-120778151D01*
X115057564Y-120778149D01*
X114806851Y-120527436D01*
X114609860Y-120232618D01*
X114527510Y-120033807D01*
X114474173Y-119905041D01*
X114405000Y-119557284D01*
X114405000Y-119202716D01*
X114445522Y-118999000D01*
X114474173Y-118854960D01*
X114499770Y-118793164D01*
X114609861Y-118527380D01*
X114806849Y-118232567D01*
X114806851Y-118232564D01*
X115057564Y-117981851D01*
X115257193Y-117848463D01*
X115352380Y-117784861D01*
X115679959Y-117649173D01*
X115795878Y-117626115D01*
X116027714Y-117580000D01*
X116382286Y-117580000D01*
X116614122Y-117626115D01*
X116614122Y-117626115D01*
G37*
G36*
X130082000Y-120049000D02*
X127982000Y-120049000D01*
X127982000Y-117949000D01*
X130082000Y-117949000D01*
X130082000Y-120049000D01*
X130082000Y-120049000D01*
G37*
G36*
X131700707Y-117956596D02*
X131777836Y-117964193D01*
X131909787Y-118004220D01*
X131975763Y-118024233D01*
X132158172Y-118121733D01*
X132318054Y-118252946D01*
X132449267Y-118412828D01*
X132546767Y-118595237D01*
X132546767Y-118595238D01*
X132606807Y-118793164D01*
X132627080Y-118999000D01*
X132606807Y-119204836D01*
X132566780Y-119336787D01*
X132546767Y-119402763D01*
X132449267Y-119585172D01*
X132318054Y-119745054D01*
X132158172Y-119876267D01*
X131975763Y-119973767D01*
X131909787Y-119993780D01*
X131777836Y-120033807D01*
X131700707Y-120041403D01*
X131623580Y-120049000D01*
X131520420Y-120049000D01*
X131443293Y-120041403D01*
X131366164Y-120033807D01*
X131234213Y-119993780D01*
X131168237Y-119973767D01*
X130985828Y-119876267D01*
X130825946Y-119745054D01*
X130694733Y-119585172D01*
X130597233Y-119402763D01*
X130577220Y-119336787D01*
X130537193Y-119204836D01*
X130516920Y-118999000D01*
X130537193Y-118793164D01*
X130597233Y-118595238D01*
X130597233Y-118595237D01*
X130694733Y-118412828D01*
X130825946Y-118252946D01*
X130985828Y-118121733D01*
X131168237Y-118024233D01*
X131234213Y-118004220D01*
X131366164Y-117964193D01*
X131443293Y-117956596D01*
X131520420Y-117949000D01*
X131623580Y-117949000D01*
X131700707Y-117956596D01*
X131700707Y-117956596D01*
G37*
G36*
X134240707Y-117956596D02*
X134317836Y-117964193D01*
X134449787Y-118004220D01*
X134515763Y-118024233D01*
X134698172Y-118121733D01*
X134858054Y-118252946D01*
X134989267Y-118412828D01*
X135086767Y-118595237D01*
X135086767Y-118595238D01*
X135146807Y-118793164D01*
X135167080Y-118999000D01*
X135146807Y-119204836D01*
X135106780Y-119336787D01*
X135086767Y-119402763D01*
X134989267Y-119585172D01*
X134858054Y-119745054D01*
X134698172Y-119876267D01*
X134515763Y-119973767D01*
X134449787Y-119993780D01*
X134317836Y-120033807D01*
X134240707Y-120041403D01*
X134163580Y-120049000D01*
X134060420Y-120049000D01*
X133983293Y-120041403D01*
X133906164Y-120033807D01*
X133774213Y-119993780D01*
X133708237Y-119973767D01*
X133525828Y-119876267D01*
X133365946Y-119745054D01*
X133234733Y-119585172D01*
X133137233Y-119402763D01*
X133117220Y-119336787D01*
X133077193Y-119204836D01*
X133056920Y-118999000D01*
X133077193Y-118793164D01*
X133137233Y-118595238D01*
X133137233Y-118595237D01*
X133234733Y-118412828D01*
X133365946Y-118252946D01*
X133525828Y-118121733D01*
X133708237Y-118024233D01*
X133774213Y-118004220D01*
X133906164Y-117964193D01*
X133983293Y-117956596D01*
X134060420Y-117949000D01*
X134163580Y-117949000D01*
X134240707Y-117956596D01*
X134240707Y-117956596D01*
G37*
G36*
X143685770Y-116226372D02*
X143801689Y-116249429D01*
X143983678Y-116324811D01*
X144147463Y-116434249D01*
X144286751Y-116573537D01*
X144396189Y-116737322D01*
X144471571Y-116919311D01*
X144510000Y-117112509D01*
X144510000Y-117309491D01*
X144471571Y-117502689D01*
X144396189Y-117684678D01*
X144286751Y-117848463D01*
X144147463Y-117987751D01*
X143983678Y-118097189D01*
X143801689Y-118172571D01*
X143685770Y-118195628D01*
X143608493Y-118211000D01*
X143411507Y-118211000D01*
X143334230Y-118195628D01*
X143218311Y-118172571D01*
X143036322Y-118097189D01*
X142872537Y-117987751D01*
X142733249Y-117848463D01*
X142623811Y-117684678D01*
X142548429Y-117502689D01*
X142510000Y-117309491D01*
X142510000Y-117112509D01*
X142548429Y-116919311D01*
X142623811Y-116737322D01*
X142733249Y-116573537D01*
X142872537Y-116434249D01*
X143036322Y-116324811D01*
X143218311Y-116249429D01*
X143334230Y-116226372D01*
X143411507Y-116211000D01*
X143608493Y-116211000D01*
X143685770Y-116226372D01*
X143685770Y-116226372D01*
G37*
G36*
X144510000Y-114411000D02*
X142510000Y-114411000D01*
X142510000Y-112411000D01*
X144510000Y-112411000D01*
X144510000Y-114411000D01*
X144510000Y-114411000D01*
G37*
G36*
X177674707Y-109955596D02*
X177751836Y-109963193D01*
X177883787Y-110003220D01*
X177949763Y-110023233D01*
X178132172Y-110120733D01*
X178292054Y-110251946D01*
X178423267Y-110411828D01*
X178520767Y-110594237D01*
X178520767Y-110594238D01*
X178580807Y-110792164D01*
X178601080Y-110998000D01*
X178580807Y-111203836D01*
X178540780Y-111335787D01*
X178520767Y-111401763D01*
X178423267Y-111584172D01*
X178292054Y-111744054D01*
X178132172Y-111875267D01*
X177949763Y-111972767D01*
X177883787Y-111992780D01*
X177751836Y-112032807D01*
X177674707Y-112040403D01*
X177597580Y-112048000D01*
X177494420Y-112048000D01*
X177417293Y-112040403D01*
X177340164Y-112032807D01*
X177208213Y-111992780D01*
X177142237Y-111972767D01*
X176959828Y-111875267D01*
X176799946Y-111744054D01*
X176668733Y-111584172D01*
X176571233Y-111401763D01*
X176551220Y-111335787D01*
X176511193Y-111203836D01*
X176490920Y-110998000D01*
X176511193Y-110792164D01*
X176571233Y-110594238D01*
X176571233Y-110594237D01*
X176668733Y-110411828D01*
X176799946Y-110251946D01*
X176959828Y-110120733D01*
X177142237Y-110023233D01*
X177208213Y-110003220D01*
X177340164Y-109963193D01*
X177417293Y-109955596D01*
X177494420Y-109948000D01*
X177597580Y-109948000D01*
X177674707Y-109955596D01*
X177674707Y-109955596D01*
G37*
G36*
X177674707Y-107415597D02*
X177751836Y-107423193D01*
X177883787Y-107463220D01*
X177949763Y-107483233D01*
X178132172Y-107580733D01*
X178292054Y-107711946D01*
X178423267Y-107871828D01*
X178520767Y-108054237D01*
X178520767Y-108054238D01*
X178580807Y-108252164D01*
X178601080Y-108458000D01*
X178580807Y-108663836D01*
X178540780Y-108795787D01*
X178520767Y-108861763D01*
X178423267Y-109044172D01*
X178292054Y-109204054D01*
X178132172Y-109335267D01*
X177949763Y-109432767D01*
X177883787Y-109452780D01*
X177751836Y-109492807D01*
X177674707Y-109500404D01*
X177597580Y-109508000D01*
X177494420Y-109508000D01*
X177417293Y-109500404D01*
X177340164Y-109492807D01*
X177208213Y-109452780D01*
X177142237Y-109432767D01*
X176959828Y-109335267D01*
X176799946Y-109204054D01*
X176668733Y-109044172D01*
X176571233Y-108861763D01*
X176551220Y-108795787D01*
X176511193Y-108663836D01*
X176490920Y-108458000D01*
X176511193Y-108252164D01*
X176571233Y-108054238D01*
X176571233Y-108054237D01*
X176668733Y-107871828D01*
X176799946Y-107711946D01*
X176959828Y-107580733D01*
X177142237Y-107483233D01*
X177208213Y-107463220D01*
X177340164Y-107423193D01*
X177417293Y-107415597D01*
X177494420Y-107408000D01*
X177597580Y-107408000D01*
X177674707Y-107415597D01*
X177674707Y-107415597D01*
G37*
G36*
X162872770Y-107092372D02*
X162988689Y-107115429D01*
X163170678Y-107190811D01*
X163334463Y-107300249D01*
X163473751Y-107439537D01*
X163583189Y-107603322D01*
X163658571Y-107785311D01*
X163697000Y-107978509D01*
X163697000Y-108175491D01*
X163658571Y-108368689D01*
X163583189Y-108550678D01*
X163473751Y-108714463D01*
X163334463Y-108853751D01*
X163170678Y-108963189D01*
X162988689Y-109038571D01*
X162872770Y-109061628D01*
X162795493Y-109077000D01*
X162598507Y-109077000D01*
X162521230Y-109061628D01*
X162405311Y-109038571D01*
X162223322Y-108963189D01*
X162059537Y-108853751D01*
X161920249Y-108714463D01*
X161810811Y-108550678D01*
X161735429Y-108368689D01*
X161697000Y-108175491D01*
X161697000Y-107978509D01*
X161735429Y-107785311D01*
X161810811Y-107603322D01*
X161920249Y-107439537D01*
X162059537Y-107300249D01*
X162223322Y-107190811D01*
X162405311Y-107115429D01*
X162521230Y-107092372D01*
X162598507Y-107077000D01*
X162795493Y-107077000D01*
X162872770Y-107092372D01*
X162872770Y-107092372D01*
G37*
G36*
X167497000Y-109077000D02*
X165497000Y-109077000D01*
X165497000Y-107077000D01*
X167497000Y-107077000D01*
X167497000Y-109077000D01*
X167497000Y-109077000D01*
G37*
G36*
X124588707Y-105002596D02*
X124665836Y-105010193D01*
X124766513Y-105040733D01*
X124863763Y-105070233D01*
X125046172Y-105167733D01*
X125206054Y-105298946D01*
X125337267Y-105458828D01*
X125434767Y-105641237D01*
X125434767Y-105641238D01*
X125494807Y-105839164D01*
X125515080Y-106045000D01*
X125494807Y-106250836D01*
X125454780Y-106382787D01*
X125434767Y-106448763D01*
X125337267Y-106631172D01*
X125206054Y-106791054D01*
X125046172Y-106922267D01*
X124863763Y-107019767D01*
X124797787Y-107039780D01*
X124665836Y-107079807D01*
X124588707Y-107087404D01*
X124511580Y-107095000D01*
X124408420Y-107095000D01*
X124331293Y-107087404D01*
X124254164Y-107079807D01*
X124122213Y-107039780D01*
X124056237Y-107019767D01*
X123873828Y-106922267D01*
X123713946Y-106791054D01*
X123582733Y-106631172D01*
X123485233Y-106448763D01*
X123465220Y-106382787D01*
X123425193Y-106250836D01*
X123404920Y-106045000D01*
X123425193Y-105839164D01*
X123485233Y-105641238D01*
X123485233Y-105641237D01*
X123582733Y-105458828D01*
X123713946Y-105298946D01*
X123873828Y-105167733D01*
X124056237Y-105070233D01*
X124153487Y-105040733D01*
X124254164Y-105010193D01*
X124331293Y-105002596D01*
X124408420Y-104995000D01*
X124511580Y-104995000D01*
X124588707Y-105002596D01*
X124588707Y-105002596D01*
G37*
G36*
X122048707Y-105002596D02*
X122125836Y-105010193D01*
X122226513Y-105040733D01*
X122323763Y-105070233D01*
X122506172Y-105167733D01*
X122666054Y-105298946D01*
X122797267Y-105458828D01*
X122894767Y-105641237D01*
X122894767Y-105641238D01*
X122954807Y-105839164D01*
X122975080Y-106045000D01*
X122954807Y-106250836D01*
X122914780Y-106382787D01*
X122894767Y-106448763D01*
X122797267Y-106631172D01*
X122666054Y-106791054D01*
X122506172Y-106922267D01*
X122323763Y-107019767D01*
X122257787Y-107039780D01*
X122125836Y-107079807D01*
X122048707Y-107087404D01*
X121971580Y-107095000D01*
X121868420Y-107095000D01*
X121791293Y-107087404D01*
X121714164Y-107079807D01*
X121582213Y-107039780D01*
X121516237Y-107019767D01*
X121333828Y-106922267D01*
X121173946Y-106791054D01*
X121042733Y-106631172D01*
X120945233Y-106448763D01*
X120925220Y-106382787D01*
X120885193Y-106250836D01*
X120864920Y-106045000D01*
X120885193Y-105839164D01*
X120945233Y-105641238D01*
X120945233Y-105641237D01*
X121042733Y-105458828D01*
X121173946Y-105298946D01*
X121333828Y-105167733D01*
X121516237Y-105070233D01*
X121613487Y-105040733D01*
X121714164Y-105010193D01*
X121791293Y-105002596D01*
X121868420Y-104995000D01*
X121971580Y-104995000D01*
X122048707Y-105002596D01*
X122048707Y-105002596D01*
G37*
G36*
X119508707Y-105002596D02*
X119585836Y-105010193D01*
X119686513Y-105040733D01*
X119783763Y-105070233D01*
X119966172Y-105167733D01*
X120126054Y-105298946D01*
X120257267Y-105458828D01*
X120354767Y-105641237D01*
X120354767Y-105641238D01*
X120414807Y-105839164D01*
X120435080Y-106045000D01*
X120414807Y-106250836D01*
X120374780Y-106382787D01*
X120354767Y-106448763D01*
X120257267Y-106631172D01*
X120126054Y-106791054D01*
X119966172Y-106922267D01*
X119783763Y-107019767D01*
X119717787Y-107039780D01*
X119585836Y-107079807D01*
X119508707Y-107087404D01*
X119431580Y-107095000D01*
X119328420Y-107095000D01*
X119251293Y-107087404D01*
X119174164Y-107079807D01*
X119042213Y-107039780D01*
X118976237Y-107019767D01*
X118793828Y-106922267D01*
X118633946Y-106791054D01*
X118502733Y-106631172D01*
X118405233Y-106448763D01*
X118385220Y-106382787D01*
X118345193Y-106250836D01*
X118324920Y-106045000D01*
X118345193Y-105839164D01*
X118405233Y-105641238D01*
X118405233Y-105641237D01*
X118502733Y-105458828D01*
X118633946Y-105298946D01*
X118793828Y-105167733D01*
X118976237Y-105070233D01*
X119073487Y-105040733D01*
X119174164Y-105010193D01*
X119251293Y-105002596D01*
X119328420Y-104995000D01*
X119431580Y-104995000D01*
X119508707Y-105002596D01*
X119508707Y-105002596D01*
G37*
G36*
X177674707Y-104875596D02*
X177751836Y-104883193D01*
X177883787Y-104923220D01*
X177949763Y-104943233D01*
X178132172Y-105040733D01*
X178292054Y-105171946D01*
X178423267Y-105331828D01*
X178520767Y-105514237D01*
X178520767Y-105514238D01*
X178580807Y-105712164D01*
X178601080Y-105918000D01*
X178580807Y-106123836D01*
X178542283Y-106250834D01*
X178520767Y-106321763D01*
X178423267Y-106504172D01*
X178292054Y-106664054D01*
X178132172Y-106795267D01*
X177949763Y-106892767D01*
X177883787Y-106912780D01*
X177751836Y-106952807D01*
X177674707Y-106960404D01*
X177597580Y-106968000D01*
X177494420Y-106968000D01*
X177417293Y-106960404D01*
X177340164Y-106952807D01*
X177208213Y-106912780D01*
X177142237Y-106892767D01*
X176959828Y-106795267D01*
X176799946Y-106664054D01*
X176668733Y-106504172D01*
X176571233Y-106321763D01*
X176549717Y-106250834D01*
X176511193Y-106123836D01*
X176490920Y-105918000D01*
X176511193Y-105712164D01*
X176571233Y-105514238D01*
X176571233Y-105514237D01*
X176668733Y-105331828D01*
X176799946Y-105171946D01*
X176959828Y-105040733D01*
X177142237Y-104943233D01*
X177208213Y-104923220D01*
X177340164Y-104883193D01*
X177417293Y-104875597D01*
X177494420Y-104868000D01*
X177597580Y-104868000D01*
X177674707Y-104875596D01*
X177674707Y-104875596D01*
G37*
G36*
X119508707Y-102462596D02*
X119585836Y-102470193D01*
X119717787Y-102510220D01*
X119783763Y-102530233D01*
X119966172Y-102627733D01*
X120126054Y-102758946D01*
X120257267Y-102918828D01*
X120354767Y-103101237D01*
X120354767Y-103101238D01*
X120414807Y-103299164D01*
X120435080Y-103505000D01*
X120414807Y-103710836D01*
X120374780Y-103842787D01*
X120354767Y-103908763D01*
X120257267Y-104091172D01*
X120126054Y-104251054D01*
X119966172Y-104382267D01*
X119783763Y-104479767D01*
X119717787Y-104499780D01*
X119585836Y-104539807D01*
X119508707Y-104547403D01*
X119431580Y-104555000D01*
X119328420Y-104555000D01*
X119251293Y-104547403D01*
X119174164Y-104539807D01*
X119042213Y-104499780D01*
X118976237Y-104479767D01*
X118793828Y-104382267D01*
X118633946Y-104251054D01*
X118502733Y-104091172D01*
X118405233Y-103908763D01*
X118385220Y-103842787D01*
X118345193Y-103710836D01*
X118324920Y-103505000D01*
X118345193Y-103299164D01*
X118405233Y-103101238D01*
X118405233Y-103101237D01*
X118502733Y-102918828D01*
X118633946Y-102758946D01*
X118793828Y-102627733D01*
X118976237Y-102530233D01*
X119042213Y-102510220D01*
X119174164Y-102470193D01*
X119251293Y-102462596D01*
X119328420Y-102455000D01*
X119431580Y-102455000D01*
X119508707Y-102462596D01*
X119508707Y-102462596D01*
G37*
G36*
X122048707Y-102462596D02*
X122125836Y-102470193D01*
X122257787Y-102510220D01*
X122323763Y-102530233D01*
X122506172Y-102627733D01*
X122666054Y-102758946D01*
X122797267Y-102918828D01*
X122894767Y-103101237D01*
X122894767Y-103101238D01*
X122954807Y-103299164D01*
X122975080Y-103505000D01*
X122954807Y-103710836D01*
X122914780Y-103842787D01*
X122894767Y-103908763D01*
X122797267Y-104091172D01*
X122666054Y-104251054D01*
X122506172Y-104382267D01*
X122323763Y-104479767D01*
X122257787Y-104499780D01*
X122125836Y-104539807D01*
X122048707Y-104547403D01*
X121971580Y-104555000D01*
X121868420Y-104555000D01*
X121791293Y-104547403D01*
X121714164Y-104539807D01*
X121582213Y-104499780D01*
X121516237Y-104479767D01*
X121333828Y-104382267D01*
X121173946Y-104251054D01*
X121042733Y-104091172D01*
X120945233Y-103908763D01*
X120925220Y-103842787D01*
X120885193Y-103710836D01*
X120864920Y-103505000D01*
X120885193Y-103299164D01*
X120945233Y-103101238D01*
X120945233Y-103101237D01*
X121042733Y-102918828D01*
X121173946Y-102758946D01*
X121333828Y-102627733D01*
X121516237Y-102530233D01*
X121582213Y-102510220D01*
X121714164Y-102470193D01*
X121791293Y-102462596D01*
X121868420Y-102455000D01*
X121971580Y-102455000D01*
X122048707Y-102462596D01*
X122048707Y-102462596D01*
G37*
G36*
X125510000Y-104555000D02*
X123410000Y-104555000D01*
X123410000Y-102455000D01*
X125510000Y-102455000D01*
X125510000Y-104555000D01*
X125510000Y-104555000D01*
G37*
G36*
X178596000Y-104428000D02*
X176496000Y-104428000D01*
X176496000Y-102328000D01*
X178596000Y-102328000D01*
X178596000Y-104428000D01*
X178596000Y-104428000D01*
G37*
G36*
X148718707Y-74522597D02*
X148795836Y-74530193D01*
X148927787Y-74570220D01*
X148993763Y-74590233D01*
X149176172Y-74687733D01*
X149336054Y-74818946D01*
X149467267Y-74978828D01*
X149564767Y-75161237D01*
X149564767Y-75161238D01*
X149624807Y-75359164D01*
X149645080Y-75565000D01*
X149624807Y-75770836D01*
X149584780Y-75902787D01*
X149564767Y-75968763D01*
X149467267Y-76151172D01*
X149336054Y-76311054D01*
X149176172Y-76442267D01*
X148993763Y-76539767D01*
X148927787Y-76559780D01*
X148795836Y-76599807D01*
X148718707Y-76607404D01*
X148641580Y-76615000D01*
X148538420Y-76615000D01*
X148461293Y-76607404D01*
X148384164Y-76599807D01*
X148252213Y-76559780D01*
X148186237Y-76539767D01*
X148003828Y-76442267D01*
X147843946Y-76311054D01*
X147712733Y-76151172D01*
X147615233Y-75968763D01*
X147595220Y-75902787D01*
X147555193Y-75770836D01*
X147534920Y-75565000D01*
X147555193Y-75359164D01*
X147615233Y-75161238D01*
X147615233Y-75161237D01*
X147712733Y-74978828D01*
X147843946Y-74818946D01*
X148003828Y-74687733D01*
X148186237Y-74590233D01*
X148252213Y-74570220D01*
X148384164Y-74530193D01*
X148461293Y-74522597D01*
X148538420Y-74515000D01*
X148641580Y-74515000D01*
X148718707Y-74522597D01*
X148718707Y-74522597D01*
G37*
G36*
X148718707Y-71982596D02*
X148795836Y-71990193D01*
X148927787Y-72030220D01*
X148993763Y-72050233D01*
X149176172Y-72147733D01*
X149336054Y-72278946D01*
X149467267Y-72438828D01*
X149564767Y-72621237D01*
X149564767Y-72621238D01*
X149624807Y-72819164D01*
X149645080Y-73025000D01*
X149624807Y-73230836D01*
X149588617Y-73350139D01*
X149564767Y-73428763D01*
X149467267Y-73611172D01*
X149336054Y-73771054D01*
X149176172Y-73902267D01*
X148993763Y-73999767D01*
X148927787Y-74019780D01*
X148795836Y-74059807D01*
X148718707Y-74067404D01*
X148641580Y-74075000D01*
X148538420Y-74075000D01*
X148461293Y-74067404D01*
X148384164Y-74059807D01*
X148252213Y-74019780D01*
X148186237Y-73999767D01*
X148003828Y-73902267D01*
X147843946Y-73771054D01*
X147712733Y-73611172D01*
X147615233Y-73428763D01*
X147591383Y-73350139D01*
X147555193Y-73230836D01*
X147534920Y-73025000D01*
X147555193Y-72819164D01*
X147615233Y-72621238D01*
X147615233Y-72621237D01*
X147712733Y-72438828D01*
X147843946Y-72278946D01*
X148003828Y-72147733D01*
X148186237Y-72050233D01*
X148252213Y-72030220D01*
X148384164Y-71990193D01*
X148461293Y-71982596D01*
X148538420Y-71975000D01*
X148641580Y-71975000D01*
X148718707Y-71982596D01*
X148718707Y-71982596D01*
G37*
G36*
X116614122Y-70001115D02*
X116730041Y-70024173D01*
X117057620Y-70159861D01*
X117236169Y-70279164D01*
X117352436Y-70356851D01*
X117603149Y-70607564D01*
X117603151Y-70607567D01*
X117791040Y-70888762D01*
X117800140Y-70902382D01*
X117935827Y-71229960D01*
X118005000Y-71577714D01*
X118005000Y-71932286D01*
X117981539Y-72050233D01*
X117935827Y-72280041D01*
X117800139Y-72607620D01*
X117675763Y-72793762D01*
X117603149Y-72902436D01*
X117352436Y-73153149D01*
X117352433Y-73153151D01*
X117057620Y-73350139D01*
X116730041Y-73485827D01*
X116614122Y-73508885D01*
X116382286Y-73555000D01*
X116027714Y-73555000D01*
X115795878Y-73508885D01*
X115679959Y-73485827D01*
X115352380Y-73350139D01*
X115057567Y-73153151D01*
X115057564Y-73153149D01*
X114806851Y-72902436D01*
X114734237Y-72793762D01*
X114609861Y-72607620D01*
X114474173Y-72280041D01*
X114428461Y-72050233D01*
X114405000Y-71932286D01*
X114405000Y-71577714D01*
X114474173Y-71229960D01*
X114609860Y-70902382D01*
X114618961Y-70888762D01*
X114806849Y-70607567D01*
X114806851Y-70607564D01*
X115057564Y-70356851D01*
X115173831Y-70279164D01*
X115352380Y-70159861D01*
X115679959Y-70024173D01*
X115795878Y-70001115D01*
X116027714Y-69955000D01*
X116382286Y-69955000D01*
X116614122Y-70001115D01*
X116614122Y-70001115D01*
G37*
G36*
X177579122Y-70001115D02*
X177695041Y-70024173D01*
X178022620Y-70159861D01*
X178201169Y-70279164D01*
X178317436Y-70356851D01*
X178568149Y-70607564D01*
X178568151Y-70607567D01*
X178756040Y-70888762D01*
X178765140Y-70902382D01*
X178900827Y-71229960D01*
X178970000Y-71577714D01*
X178970000Y-71932286D01*
X178946539Y-72050233D01*
X178900827Y-72280041D01*
X178765139Y-72607620D01*
X178640763Y-72793762D01*
X178568149Y-72902436D01*
X178317436Y-73153149D01*
X178317433Y-73153151D01*
X178022620Y-73350139D01*
X177695041Y-73485827D01*
X177579122Y-73508885D01*
X177347286Y-73555000D01*
X176992714Y-73555000D01*
X176760878Y-73508885D01*
X176644959Y-73485827D01*
X176317380Y-73350139D01*
X176022567Y-73153151D01*
X176022564Y-73153149D01*
X175771851Y-72902436D01*
X175699237Y-72793762D01*
X175574861Y-72607620D01*
X175439173Y-72280041D01*
X175393461Y-72050233D01*
X175370000Y-71932286D01*
X175370000Y-71577714D01*
X175439173Y-71229960D01*
X175574860Y-70902382D01*
X175583961Y-70888762D01*
X175771849Y-70607567D01*
X175771851Y-70607564D01*
X176022564Y-70356851D01*
X176138831Y-70279164D01*
X176317380Y-70159861D01*
X176644959Y-70024173D01*
X176760878Y-70001115D01*
X176992714Y-69955000D01*
X177347286Y-69955000D01*
X177579122Y-70001115D01*
X177579122Y-70001115D01*
G37*
G36*
X124240000Y-73440000D02*
X122140000Y-73440000D01*
X122140000Y-71340000D01*
X124240000Y-71340000D01*
X124240000Y-73440000D01*
X124240000Y-73440000D01*
G37*
G36*
X125858707Y-71347596D02*
X125935836Y-71355193D01*
X126067787Y-71395220D01*
X126133763Y-71415233D01*
X126316172Y-71512733D01*
X126476054Y-71643946D01*
X126607267Y-71803828D01*
X126704767Y-71986237D01*
X126704767Y-71986238D01*
X126764807Y-72184164D01*
X126785080Y-72390000D01*
X126764807Y-72595836D01*
X126757101Y-72621238D01*
X126704767Y-72793763D01*
X126607267Y-72976172D01*
X126476054Y-73136054D01*
X126316172Y-73267267D01*
X126133763Y-73364767D01*
X126067787Y-73384780D01*
X125935836Y-73424807D01*
X125858707Y-73432404D01*
X125781580Y-73440000D01*
X125678420Y-73440000D01*
X125601293Y-73432404D01*
X125524164Y-73424807D01*
X125392213Y-73384780D01*
X125326237Y-73364767D01*
X125143828Y-73267267D01*
X124983946Y-73136054D01*
X124852733Y-72976172D01*
X124755233Y-72793763D01*
X124702899Y-72621238D01*
X124695193Y-72595836D01*
X124674920Y-72390000D01*
X124695193Y-72184164D01*
X124755233Y-71986238D01*
X124755233Y-71986237D01*
X124852733Y-71803828D01*
X124983946Y-71643946D01*
X125143828Y-71512733D01*
X125326237Y-71415233D01*
X125392213Y-71395220D01*
X125524164Y-71355193D01*
X125601293Y-71347596D01*
X125678420Y-71340000D01*
X125781580Y-71340000D01*
X125858707Y-71347596D01*
X125858707Y-71347596D01*
G37*
G36*
X164593707Y-69442596D02*
X164670836Y-69450193D01*
X164802787Y-69490220D01*
X164868763Y-69510233D01*
X165051172Y-69607733D01*
X165211054Y-69738946D01*
X165342267Y-69898828D01*
X165439767Y-70081237D01*
X165439767Y-70081238D01*
X165499807Y-70279164D01*
X165520080Y-70485000D01*
X165499807Y-70690836D01*
X165459780Y-70822787D01*
X165439767Y-70888763D01*
X165342267Y-71071172D01*
X165211054Y-71231054D01*
X165051172Y-71362267D01*
X164868763Y-71459767D01*
X164802787Y-71479780D01*
X164670836Y-71519807D01*
X164593707Y-71527404D01*
X164516580Y-71535000D01*
X164413420Y-71535000D01*
X164336293Y-71527404D01*
X164259164Y-71519807D01*
X164127213Y-71479780D01*
X164061237Y-71459767D01*
X163878828Y-71362267D01*
X163718946Y-71231054D01*
X163587733Y-71071172D01*
X163490233Y-70888763D01*
X163470220Y-70822787D01*
X163430193Y-70690836D01*
X163409920Y-70485000D01*
X163430193Y-70279164D01*
X163490233Y-70081238D01*
X163490233Y-70081237D01*
X163587733Y-69898828D01*
X163718946Y-69738946D01*
X163878828Y-69607733D01*
X164061237Y-69510233D01*
X164127213Y-69490220D01*
X164259164Y-69450193D01*
X164336293Y-69442596D01*
X164413420Y-69435000D01*
X164516580Y-69435000D01*
X164593707Y-69442596D01*
X164593707Y-69442596D01*
G37*
G36*
X162053707Y-69442596D02*
X162130836Y-69450193D01*
X162262787Y-69490220D01*
X162328763Y-69510233D01*
X162511172Y-69607733D01*
X162671054Y-69738946D01*
X162802267Y-69898828D01*
X162899767Y-70081237D01*
X162899767Y-70081238D01*
X162959807Y-70279164D01*
X162980080Y-70485000D01*
X162959807Y-70690836D01*
X162919780Y-70822787D01*
X162899767Y-70888763D01*
X162802267Y-71071172D01*
X162671054Y-71231054D01*
X162511172Y-71362267D01*
X162328763Y-71459767D01*
X162262787Y-71479780D01*
X162130836Y-71519807D01*
X162053707Y-71527404D01*
X161976580Y-71535000D01*
X161873420Y-71535000D01*
X161796293Y-71527404D01*
X161719164Y-71519807D01*
X161587213Y-71479780D01*
X161521237Y-71459767D01*
X161338828Y-71362267D01*
X161178946Y-71231054D01*
X161047733Y-71071172D01*
X160950233Y-70888763D01*
X160930220Y-70822787D01*
X160890193Y-70690836D01*
X160869920Y-70485000D01*
X160890193Y-70279164D01*
X160950233Y-70081238D01*
X160950233Y-70081237D01*
X161047733Y-69898828D01*
X161178946Y-69738946D01*
X161338828Y-69607733D01*
X161521237Y-69510233D01*
X161587213Y-69490220D01*
X161719164Y-69450193D01*
X161796293Y-69442596D01*
X161873420Y-69435000D01*
X161976580Y-69435000D01*
X162053707Y-69442596D01*
X162053707Y-69442596D01*
G37*
G36*
X149640000Y-71535000D02*
X147540000Y-71535000D01*
X147540000Y-69435000D01*
X149640000Y-69435000D01*
X149640000Y-71535000D01*
X149640000Y-71535000D01*
G37*
G36*
X168055000Y-71535000D02*
X165955000Y-71535000D01*
X165955000Y-69435000D01*
X168055000Y-69435000D01*
X168055000Y-71535000D01*
X168055000Y-71535000D01*
G37*
M02*
