M48
;DRILL file {KiCad 5.0.1-33cea8e~68~ubuntu18.04.1} date Вт 27 ноя 2018 22:05:34
;FORMAT={-:-/ absolute / inch / decimal}
FMAT,2
INCH,TZ
T1C0.0157
T2C0.0315
T3C0.0394
%
G90
G05
M72
T1
X4.58Y-3.735
X4.825Y-3.685
X4.965Y-3.555
X5.Y-3.82
X5.025Y-3.375
X5.06Y-3.635
X5.1Y-4.025
X5.185Y-3.46
X5.2188Y-3.5688
X5.425Y-3.52
X5.5Y-4.
X5.515Y-3.57
X5.515Y-3.395
X5.595Y-3.46
X5.63Y-3.225
X5.91Y-4.475
X5.91Y-4.525
X5.96Y-3.05
X5.96Y-4.475
X5.96Y-4.525
X6.01Y-3.67
X6.01Y-4.475
X6.01Y-4.525
X6.05Y-3.06
X6.11Y-4.475
X6.11Y-4.525
X6.16Y-4.475
X6.16Y-4.525
X6.21Y-4.475
X6.21Y-4.525
X6.23Y-3.665
X6.285Y-3.665
X6.48Y-3.845
T2
X5.65Y-4.465
X5.65Y-4.6146
X6.4054Y-4.255
X6.555Y-4.255
T3
X6.99Y-4.07
X6.99Y-4.17
X6.99Y-4.27
X6.99Y-4.37
X6.375Y-2.775
X6.475Y-2.775
X6.575Y-2.775
X5.08Y-4.685
X5.18Y-4.685
X5.28Y-4.685
X5.85Y-2.775
X5.85Y-2.875
X5.85Y-2.975
X4.7Y-4.075
X4.7Y-4.175
X4.8Y-4.075
X4.8Y-4.175
X4.9Y-4.075
X4.9Y-4.175
X4.85Y-2.85
X4.95Y-2.85
T0
M30
